<?xml version="1.0" encoding="utf-8" standalone="no"?>
<!DOCTYPE svg PUBLIC "-//W3C//DTD SVG 1.1//EN"
  "http://www.w3.org/Graphics/SVG/1.1/DTD/svg11.dtd">
<svg xmlns:xlink="http://www.w3.org/1999/xlink" width="460.8pt" height="345.6pt" viewBox="0 0 460.8 345.6" xmlns="http://www.w3.org/2000/svg" version="1.1">
 <metadata>
  <rdf:RDF xmlns:dc="http://purl.org/dc/elements/1.1/" xmlns:cc="http://creativecommons.org/ns#" xmlns:rdf="http://www.w3.org/1999/02/22-rdf-syntax-ns#">
   <cc:Work>
    <dc:type rdf:resource="http://purl.org/dc/dcmitype/StillImage"/>
    <dc:date>2026-04-08T12:49:51.400810</dc:date>
    <dc:format>image/svg+xml</dc:format>
    <dc:creator>
     <cc:Agent>
      <dc:title>Matplotlib v3.10.8, https://matplotlib.org/</dc:title>
     </cc:Agent>
    </dc:creator>
   </cc:Work>
  </rdf:RDF>
 </metadata>
 <defs>
  <style type="text/css">*{stroke-linejoin: round; stroke-linecap: butt}</style>
 </defs>
 <g id="figure_1">
  <g id="patch_1">
   <path d="M 0 345.6 
L 460.8 345.6 
L 460.8 0 
L 0 0 
z
" style="fill: #ffffff"/>
  </g>
  <g id="axes_1">
   <g id="patch_2">
    <path d="M 56.928125 304.44375 
L 450 304.44375 
L 450 12.35689 
L 56.928125 12.35689 
z
" style="fill: #ffffff"/>
   </g>
   <g id="matplotlib.axis_1">
    <g id="xtick_1">
     <g id="line2d_1">
      <defs>
       <path id="m287e4ac405" d="M 0 0 
L 0 3.5 
" style="stroke: #000000; stroke-width: 0.8"/>
      </defs>
      <g>
       <use xlink:href="#m287e4ac405" x="74.795028" y="304.44375" style="stroke: #000000; stroke-width: 0.8"/>
      </g>
     </g>
     <g id="text_1">
      <!-- 0 -->
      <g transform="translate(71.613778 319.042187) scale(0.1 -0.1)">
       <defs>
        <path id="DejaVuSans-30" d="M 2034 4250 
Q 1547 4250 1301 3770 
Q 1056 3291 1056 2328 
Q 1056 1369 1301 889 
Q 1547 409 2034 409 
Q 2525 409 2770 889 
Q 3016 1369 3016 2328 
Q 3016 3291 2770 3770 
Q 2525 4250 2034 4250 
z
M 2034 4750 
Q 2819 4750 3233 4129 
Q 3647 3509 3647 2328 
Q 3647 1150 3233 529 
Q 2819 -91 2034 -91 
Q 1250 -91 836 529 
Q 422 1150 422 2328 
Q 422 3509 836 4129 
Q 1250 4750 2034 4750 
z
" transform="scale(0.015625)"/>
       </defs>
       <use xlink:href="#DejaVuSans-30"/>
      </g>
     </g>
    </g>
    <g id="xtick_2">
     <g id="line2d_2">
      <g>
       <use xlink:href="#m287e4ac405" x="146.262642" y="304.44375" style="stroke: #000000; stroke-width: 0.8"/>
      </g>
     </g>
     <g id="text_2">
      <!-- 200 -->
      <g transform="translate(136.718892 319.042187) scale(0.1 -0.1)">
       <defs>
        <path id="DejaVuSans-32" d="M 1228 531 
L 3431 531 
L 3431 0 
L 469 0 
L 469 531 
Q 828 903 1448 1529 
Q 2069 2156 2228 2338 
Q 2531 2678 2651 2914 
Q 2772 3150 2772 3378 
Q 2772 3750 2511 3984 
Q 2250 4219 1831 4219 
Q 1534 4219 1204 4116 
Q 875 4013 500 3803 
L 500 4441 
Q 881 4594 1212 4672 
Q 1544 4750 1819 4750 
Q 2544 4750 2975 4387 
Q 3406 4025 3406 3419 
Q 3406 3131 3298 2873 
Q 3191 2616 2906 2266 
Q 2828 2175 2409 1742 
Q 1991 1309 1228 531 
z
" transform="scale(0.015625)"/>
       </defs>
       <use xlink:href="#DejaVuSans-32"/>
       <use xlink:href="#DejaVuSans-30" transform="translate(63.623047 0)"/>
       <use xlink:href="#DejaVuSans-30" transform="translate(127.246094 0)"/>
      </g>
     </g>
    </g>
    <g id="xtick_3">
     <g id="line2d_3">
      <g>
       <use xlink:href="#m287e4ac405" x="217.730256" y="304.44375" style="stroke: #000000; stroke-width: 0.8"/>
      </g>
     </g>
     <g id="text_3">
      <!-- 400 -->
      <g transform="translate(208.186506 319.042187) scale(0.1 -0.1)">
       <defs>
        <path id="DejaVuSans-34" d="M 2419 4116 
L 825 1625 
L 2419 1625 
L 2419 4116 
z
M 2253 4666 
L 3047 4666 
L 3047 1625 
L 3713 1625 
L 3713 1100 
L 3047 1100 
L 3047 0 
L 2419 0 
L 2419 1100 
L 313 1100 
L 313 1709 
L 2253 4666 
z
" transform="scale(0.015625)"/>
       </defs>
       <use xlink:href="#DejaVuSans-34"/>
       <use xlink:href="#DejaVuSans-30" transform="translate(63.623047 0)"/>
       <use xlink:href="#DejaVuSans-30" transform="translate(127.246094 0)"/>
      </g>
     </g>
    </g>
    <g id="xtick_4">
     <g id="line2d_4">
      <g>
       <use xlink:href="#m287e4ac405" x="289.197869" y="304.44375" style="stroke: #000000; stroke-width: 0.8"/>
      </g>
     </g>
     <g id="text_4">
      <!-- 600 -->
      <g transform="translate(279.654119 319.042187) scale(0.1 -0.1)">
       <defs>
        <path id="DejaVuSans-36" d="M 2113 2584 
Q 1688 2584 1439 2293 
Q 1191 2003 1191 1497 
Q 1191 994 1439 701 
Q 1688 409 2113 409 
Q 2538 409 2786 701 
Q 3034 994 3034 1497 
Q 3034 2003 2786 2293 
Q 2538 2584 2113 2584 
z
M 3366 4563 
L 3366 3988 
Q 3128 4100 2886 4159 
Q 2644 4219 2406 4219 
Q 1781 4219 1451 3797 
Q 1122 3375 1075 2522 
Q 1259 2794 1537 2939 
Q 1816 3084 2150 3084 
Q 2853 3084 3261 2657 
Q 3669 2231 3669 1497 
Q 3669 778 3244 343 
Q 2819 -91 2113 -91 
Q 1303 -91 875 529 
Q 447 1150 447 2328 
Q 447 3434 972 4092 
Q 1497 4750 2381 4750 
Q 2619 4750 2861 4703 
Q 3103 4656 3366 4563 
z
" transform="scale(0.015625)"/>
       </defs>
       <use xlink:href="#DejaVuSans-36"/>
       <use xlink:href="#DejaVuSans-30" transform="translate(63.623047 0)"/>
       <use xlink:href="#DejaVuSans-30" transform="translate(127.246094 0)"/>
      </g>
     </g>
    </g>
    <g id="xtick_5">
     <g id="line2d_5">
      <g>
       <use xlink:href="#m287e4ac405" x="360.665483" y="304.44375" style="stroke: #000000; stroke-width: 0.8"/>
      </g>
     </g>
     <g id="text_5">
      <!-- 800 -->
      <g transform="translate(351.121733 319.042187) scale(0.1 -0.1)">
       <defs>
        <path id="DejaVuSans-38" d="M 2034 2216 
Q 1584 2216 1326 1975 
Q 1069 1734 1069 1313 
Q 1069 891 1326 650 
Q 1584 409 2034 409 
Q 2484 409 2743 651 
Q 3003 894 3003 1313 
Q 3003 1734 2745 1975 
Q 2488 2216 2034 2216 
z
M 1403 2484 
Q 997 2584 770 2862 
Q 544 3141 544 3541 
Q 544 4100 942 4425 
Q 1341 4750 2034 4750 
Q 2731 4750 3128 4425 
Q 3525 4100 3525 3541 
Q 3525 3141 3298 2862 
Q 3072 2584 2669 2484 
Q 3125 2378 3379 2068 
Q 3634 1759 3634 1313 
Q 3634 634 3220 271 
Q 2806 -91 2034 -91 
Q 1263 -91 848 271 
Q 434 634 434 1313 
Q 434 1759 690 2068 
Q 947 2378 1403 2484 
z
M 1172 3481 
Q 1172 3119 1398 2916 
Q 1625 2713 2034 2713 
Q 2441 2713 2670 2916 
Q 2900 3119 2900 3481 
Q 2900 3844 2670 4047 
Q 2441 4250 2034 4250 
Q 1625 4250 1398 4047 
Q 1172 3844 1172 3481 
z
" transform="scale(0.015625)"/>
       </defs>
       <use xlink:href="#DejaVuSans-38"/>
       <use xlink:href="#DejaVuSans-30" transform="translate(63.623047 0)"/>
       <use xlink:href="#DejaVuSans-30" transform="translate(127.246094 0)"/>
      </g>
     </g>
    </g>
    <g id="xtick_6">
     <g id="line2d_6">
      <g>
       <use xlink:href="#m287e4ac405" x="432.133097" y="304.44375" style="stroke: #000000; stroke-width: 0.8"/>
      </g>
     </g>
     <g id="text_6">
      <!-- 1000 -->
      <g transform="translate(419.408097 319.042187) scale(0.1 -0.1)">
       <defs>
        <path id="DejaVuSans-31" d="M 794 531 
L 1825 531 
L 1825 4091 
L 703 3866 
L 703 4441 
L 1819 4666 
L 2450 4666 
L 2450 531 
L 3481 531 
L 3481 0 
L 794 0 
L 794 531 
z
" transform="scale(0.015625)"/>
       </defs>
       <use xlink:href="#DejaVuSans-31"/>
       <use xlink:href="#DejaVuSans-30" transform="translate(63.623047 0)"/>
       <use xlink:href="#DejaVuSans-30" transform="translate(127.246094 0)"/>
       <use xlink:href="#DejaVuSans-30" transform="translate(190.869141 0)"/>
      </g>
     </g>
    </g>
    <g id="text_7">
     <!-- t [ps] -->
     <g transform="translate(240.234375 332.720312) scale(0.1 -0.1)">
      <defs>
       <path id="DejaVuSans-74" d="M 1172 4494 
L 1172 3500 
L 2356 3500 
L 2356 3053 
L 1172 3053 
L 1172 1153 
Q 1172 725 1289 603 
Q 1406 481 1766 481 
L 2356 481 
L 2356 0 
L 1766 0 
Q 1100 0 847 248 
Q 594 497 594 1153 
L 594 3053 
L 172 3053 
L 172 3500 
L 594 3500 
L 594 4494 
L 1172 4494 
z
" transform="scale(0.015625)"/>
       <path id="DejaVuSans-20" transform="scale(0.015625)"/>
       <path id="DejaVuSans-5b" d="M 550 4863 
L 1875 4863 
L 1875 4416 
L 1125 4416 
L 1125 -397 
L 1875 -397 
L 1875 -844 
L 550 -844 
L 550 4863 
z
" transform="scale(0.015625)"/>
       <path id="DejaVuSans-70" d="M 1159 525 
L 1159 -1331 
L 581 -1331 
L 581 3500 
L 1159 3500 
L 1159 2969 
Q 1341 3281 1617 3432 
Q 1894 3584 2278 3584 
Q 2916 3584 3314 3078 
Q 3713 2572 3713 1747 
Q 3713 922 3314 415 
Q 2916 -91 2278 -91 
Q 1894 -91 1617 61 
Q 1341 213 1159 525 
z
M 3116 1747 
Q 3116 2381 2855 2742 
Q 2594 3103 2138 3103 
Q 1681 3103 1420 2742 
Q 1159 2381 1159 1747 
Q 1159 1113 1420 752 
Q 1681 391 2138 391 
Q 2594 391 2855 752 
Q 3116 1113 3116 1747 
z
" transform="scale(0.015625)"/>
       <path id="DejaVuSans-73" d="M 2834 3397 
L 2834 2853 
Q 2591 2978 2328 3040 
Q 2066 3103 1784 3103 
Q 1356 3103 1142 2972 
Q 928 2841 928 2578 
Q 928 2378 1081 2264 
Q 1234 2150 1697 2047 
L 1894 2003 
Q 2506 1872 2764 1633 
Q 3022 1394 3022 966 
Q 3022 478 2636 193 
Q 2250 -91 1575 -91 
Q 1294 -91 989 -36 
Q 684 19 347 128 
L 347 722 
Q 666 556 975 473 
Q 1284 391 1588 391 
Q 1994 391 2212 530 
Q 2431 669 2431 922 
Q 2431 1156 2273 1281 
Q 2116 1406 1581 1522 
L 1381 1569 
Q 847 1681 609 1914 
Q 372 2147 372 2553 
Q 372 3047 722 3315 
Q 1072 3584 1716 3584 
Q 2034 3584 2315 3537 
Q 2597 3491 2834 3397 
z
" transform="scale(0.015625)"/>
       <path id="DejaVuSans-5d" d="M 1947 4863 
L 1947 -844 
L 622 -844 
L 622 -397 
L 1369 -397 
L 1369 4416 
L 622 4416 
L 622 4863 
L 1947 4863 
z
" transform="scale(0.015625)"/>
      </defs>
      <use xlink:href="#DejaVuSans-74"/>
      <use xlink:href="#DejaVuSans-20" transform="translate(39.208984 0)"/>
      <use xlink:href="#DejaVuSans-5b" transform="translate(70.996094 0)"/>
      <use xlink:href="#DejaVuSans-70" transform="translate(110.009766 0)"/>
      <use xlink:href="#DejaVuSans-73" transform="translate(173.486328 0)"/>
      <use xlink:href="#DejaVuSans-5d" transform="translate(225.585938 0)"/>
     </g>
    </g>
   </g>
   <g id="matplotlib.axis_2">
    <g id="ytick_1">
     <g id="line2d_7">
      <defs>
       <path id="ma2dcc2e5e6" d="M 0 0 
L -3.5 0 
" style="stroke: #000000; stroke-width: 0.8"/>
      </defs>
      <g>
       <use xlink:href="#ma2dcc2e5e6" x="56.928125" y="291.167075" style="stroke: #000000; stroke-width: 0.8"/>
      </g>
     </g>
     <g id="text_8">
      <!-- 0 -->
      <g transform="translate(43.565625 294.966293) scale(0.1 -0.1)">
       <use xlink:href="#DejaVuSans-30"/>
      </g>
     </g>
    </g>
    <g id="ytick_2">
     <g id="line2d_8">
      <g>
       <use xlink:href="#ma2dcc2e5e6" x="56.928125" y="251.688648" style="stroke: #000000; stroke-width: 0.8"/>
      </g>
     </g>
     <g id="text_9">
      <!-- 200 -->
      <g transform="translate(30.840625 255.487867) scale(0.1 -0.1)">
       <use xlink:href="#DejaVuSans-32"/>
       <use xlink:href="#DejaVuSans-30" transform="translate(63.623047 0)"/>
       <use xlink:href="#DejaVuSans-30" transform="translate(127.246094 0)"/>
      </g>
     </g>
    </g>
    <g id="ytick_3">
     <g id="line2d_9">
      <g>
       <use xlink:href="#ma2dcc2e5e6" x="56.928125" y="212.210222" style="stroke: #000000; stroke-width: 0.8"/>
      </g>
     </g>
     <g id="text_10">
      <!-- 400 -->
      <g transform="translate(30.840625 216.00944) scale(0.1 -0.1)">
       <use xlink:href="#DejaVuSans-34"/>
       <use xlink:href="#DejaVuSans-30" transform="translate(63.623047 0)"/>
       <use xlink:href="#DejaVuSans-30" transform="translate(127.246094 0)"/>
      </g>
     </g>
    </g>
    <g id="ytick_4">
     <g id="line2d_10">
      <g>
       <use xlink:href="#ma2dcc2e5e6" x="56.928125" y="172.731795" style="stroke: #000000; stroke-width: 0.8"/>
      </g>
     </g>
     <g id="text_11">
      <!-- 600 -->
      <g transform="translate(30.840625 176.531014) scale(0.1 -0.1)">
       <use xlink:href="#DejaVuSans-36"/>
       <use xlink:href="#DejaVuSans-30" transform="translate(63.623047 0)"/>
       <use xlink:href="#DejaVuSans-30" transform="translate(127.246094 0)"/>
      </g>
     </g>
    </g>
    <g id="ytick_5">
     <g id="line2d_11">
      <g>
       <use xlink:href="#ma2dcc2e5e6" x="56.928125" y="133.253369" style="stroke: #000000; stroke-width: 0.8"/>
      </g>
     </g>
     <g id="text_12">
      <!-- 800 -->
      <g transform="translate(30.840625 137.052588) scale(0.1 -0.1)">
       <use xlink:href="#DejaVuSans-38"/>
       <use xlink:href="#DejaVuSans-30" transform="translate(63.623047 0)"/>
       <use xlink:href="#DejaVuSans-30" transform="translate(127.246094 0)"/>
      </g>
     </g>
    </g>
    <g id="ytick_6">
     <g id="line2d_12">
      <g>
       <use xlink:href="#ma2dcc2e5e6" x="56.928125" y="93.774943" style="stroke: #000000; stroke-width: 0.8"/>
      </g>
     </g>
     <g id="text_13">
      <!-- 1000 -->
      <g transform="translate(24.478125 97.574161) scale(0.1 -0.1)">
       <use xlink:href="#DejaVuSans-31"/>
       <use xlink:href="#DejaVuSans-30" transform="translate(63.623047 0)"/>
       <use xlink:href="#DejaVuSans-30" transform="translate(127.246094 0)"/>
       <use xlink:href="#DejaVuSans-30" transform="translate(190.869141 0)"/>
      </g>
     </g>
    </g>
    <g id="ytick_7">
     <g id="line2d_13">
      <g>
       <use xlink:href="#ma2dcc2e5e6" x="56.928125" y="54.296516" style="stroke: #000000; stroke-width: 0.8"/>
      </g>
     </g>
     <g id="text_14">
      <!-- 1200 -->
      <g transform="translate(24.478125 58.095735) scale(0.1 -0.1)">
       <use xlink:href="#DejaVuSans-31"/>
       <use xlink:href="#DejaVuSans-32" transform="translate(63.623047 0)"/>
       <use xlink:href="#DejaVuSans-30" transform="translate(127.246094 0)"/>
       <use xlink:href="#DejaVuSans-30" transform="translate(190.869141 0)"/>
      </g>
     </g>
    </g>
    <g id="ytick_8">
     <g id="line2d_14">
      <g>
       <use xlink:href="#ma2dcc2e5e6" x="56.928125" y="14.81809" style="stroke: #000000; stroke-width: 0.8"/>
      </g>
     </g>
     <g id="text_15">
      <!-- 1400 -->
      <g transform="translate(24.478125 18.617308) scale(0.1 -0.1)">
       <use xlink:href="#DejaVuSans-31"/>
       <use xlink:href="#DejaVuSans-34" transform="translate(63.623047 0)"/>
       <use xlink:href="#DejaVuSans-30" transform="translate(127.246094 0)"/>
       <use xlink:href="#DejaVuSans-30" transform="translate(190.869141 0)"/>
      </g>
     </g>
    </g>
    <g id="text_16">
     <!-- N -->
     <g transform="translate(18.398438 162.140945) rotate(-90) scale(0.1 -0.1)">
      <defs>
       <path id="DejaVuSans-4e" d="M 628 4666 
L 1478 4666 
L 3547 763 
L 3547 4666 
L 4159 4666 
L 4159 0 
L 3309 0 
L 1241 3903 
L 1241 0 
L 628 0 
L 628 4666 
z
" transform="scale(0.015625)"/>
      </defs>
      <use xlink:href="#DejaVuSans-4e"/>
     </g>
    </g>
   </g>
   <g id="line2d_15">
    <path d="M 74.795028 290.969682 
L 75.009253 290.964721 
L 75.121457 289.613078 
L 75.134321 289.613078 
L 75.246525 288.327157 
L 75.259389 288.327157 
L 75.371593 287.015288 
L 75.384458 287.015288 
L 75.495768 286.683926 
L 75.616727 286.59281 
L 75.73179 285.800612 
L 75.741796 285.800612 
L 75.759663 285.603455 
L 75.849176 288.095338 
L 75.850784 288.095338 
L 75.866864 288.095338 
L 75.956198 288.892152 
L 75.978175 288.524554 
L 75.991932 288.524554 
L 76.027666 288.875407 
L 76.099312 288.292027 
L 76.102886 288.292027 
L 76.117001 288.292027 
L 76.152734 287.970181 
L 76.17078 288.569544 
L 76.228133 288.218811 
L 76.242069 288.218811 
L 76.34927 287.597594 
L 76.353558 287.653578 
L 76.367137 287.653578 
L 76.478627 287.146952 
L 76.563673 287.050445 
L 76.67552 286.302281 
L 76.688742 286.302281 
L 76.800767 288.316289 
L 78.028759 288.220709 
L 78.140427 288.123736 
L 78.779169 288.019091 
L 78.894411 287.812433 
L 78.939971 287.716339 
L 79.052354 287.1261 
L 79.100773 287.125913 
L 79.211906 286.950821 
L 80.279989 286.843016 
L 80.391836 286.784866 
L 80.673061 286.673883 
L 80.792412 286.669184 
L 81.101867 286.576001 
L 81.214071 286.40768 
L 81.244802 286.345339 
L 81.356827 285.991927 
L 81.405604 285.926238 
L 81.516915 285.843773 
L 81.727208 285.739961 
L 81.83977 285.599388 
L 83.156561 285.491884 
L 83.268765 285.463324 
L 83.585366 285.386925 
L 83.696856 285.277356 
L 83.781902 285.183479 
L 83.89357 284.654864 
L 84.639514 284.547679 
L 84.752075 284.514395 
L 84.961118 284.403384 
L 85.072607 284.394955 
L 85.64006 284.284074 
L 85.752622 284.233204 
L 85.925931 284.123151 
L 86.037956 284.021975 
L 86.122467 283.928037 
L 86.234492 283.741674 
L 86.319002 283.664761 
L 86.431564 283.295269 
L 86.461938 283.219921 
L 86.574678 282.585883 
L 86.587006 282.585883 
L 86.699031 281.924235 
L 86.712074 281.924235 
L 86.823385 281.678128 
L 87.391017 281.604377 
L 87.503042 280.638356 
L 87.533952 280.53738 
L 87.645799 279.67869 
L 87.65902 279.67869 
L 87.77051 279.316753 
L 88.087826 279.232937 
L 88.199315 279.090898 
L 88.320096 278.997605 
L 88.431585 278.903173 
L 88.480898 278.808029 
L 88.592566 278.733957 
L 89.231308 278.636898 
L 89.342797 278.59178 
L 89.517178 278.495452 
L 89.628668 278.397614 
L 91.125199 278.28998 
L 91.237761 278.254427 
L 91.64334 278.145737 
L 91.755008 278.107698 
L 91.964944 278.010556 
L 92.077148 277.88233 
L 92.16148 277.784132 
L 92.273863 277.574798 
L 92.340149 277.474494 
L 92.451996 277.285676 
L 93.036958 277.179375 
L 93.149877 277.124469 
L 93.412163 277.019105 
L 93.52401 276.946425 
L 93.6623 276.841162 
L 93.774861 276.659464 
L 93.840969 276.572655 
L 93.95353 276.226139 
L 94.019638 276.120341 
L 94.135058 275.892925 
L 94.162573 275.789954 
L 94.273884 275.686983 
L 94.41271 275.636197 
L 94.524378 275.309327 
L 94.591379 275.243714 
L 94.70269 274.978331 
L 94.787915 274.892915 
L 94.899404 274.695729 
L 94.966584 274.59664 
L 95.078967 274.202219 
L 95.109519 274.111299 
L 95.221723 273.044909 
L 95.234587 273.044909 
L 95.346434 272.089584 
L 95.377522 271.998713 
L 95.489012 271.740545 
L 95.788461 271.654132 
L 95.900129 271.014764 
L 95.91353 271.014764 
L 96.025019 270.458689 
L 97.342882 270.348888 
L 97.457587 270.325293 
L 97.628752 270.225307 
L 97.74042 270.164408 
L 97.896756 270.077347 
L 98.008603 269.911982 
L 98.182626 269.808154 
L 98.295545 269.694861 
L 98.343428 269.649694 
L 98.455275 269.297637 
L 98.522097 269.233188 
L 98.633766 268.99849 
L 98.700767 268.891643 
L 98.813149 268.538078 
L 98.843702 268.485663 
L 98.955906 268.074063 
L 98.986637 268.003994 
L 99.098126 267.800353 
L 99.183173 267.715739 
L 99.295377 267.129585 
L 99.308241 267.129585 
L 99.420088 266.45166 
L 99.451176 266.380077 
L 99.562666 266.137154 
L 99.611979 266.03982 
L 99.724361 265.660123 
L 99.772781 265.577695 
L 99.884985 265.244585 
L 99.915716 265.20953 
L 100.027384 264.968972 
L 101.291467 264.859585 
L 101.404029 264.807757 
L 101.702406 264.700489 
L 101.814074 264.632155 
L 102.113345 264.557126 
L 102.225013 264.44062 
L 102.274147 264.333717 
L 102.386351 264.075084 
L 102.470683 263.976426 
L 102.581994 263.902522 
L 102.738687 263.819732 
L 102.850533 263.557548 
L 103.042424 263.491243 
L 103.154092 263.296612 
L 103.328294 263.188381 
L 103.441749 262.81105 
L 103.453363 262.81105 
L 103.564852 262.432636 
L 103.7571 262.376903 
L 103.868411 262.121853 
L 103.98937 262.046479 
L 104.101217 261.212098 
L 104.22164 261.126335 
L 104.333665 260.281808 
L 104.543244 260.268021 
L 104.655269 259.187115 
L 104.704046 259.082134 
L 104.815536 258.583089 
L 104.882715 258.522616 
L 104.994205 258.21419 
L 105.043517 258.10386 
L 105.132852 257.525792 
L 105.155185 257.533266 
L 105.25792 257.528124 
L 105.369588 256.896248 
L 105.597391 256.818197 
L 105.668859 256.560934 
L 105.708702 256.571506 
L 105.758193 256.568194 
L 105.829661 256.2702 
L 105.869325 256.429575 
L 105.901129 256.396402 
L 106.012618 255.936261 
L 106.097665 255.859727 
L 106.169132 255.389354 
L 106.205045 256.00151 
L 106.208439 256.00151 
L 106.222733 256.00151 
L 106.33458 255.251044 
L 106.383535 255.240874 
L 106.401402 255.779904 
L 106.494667 255.352065 
L 106.52647 255.282874 
L 106.580071 254.758634 
L 106.63796 254.903933 
L 107.973689 254.794352 
L 108.086072 254.751892 
L 109.671045 254.641791 
L 109.7845 254.578287 
L 109.956916 254.492393 
L 110.068405 254.39258 
L 110.099851 254.330965 
L 110.211162 254.251057 
L 110.707326 254.140592 
L 110.819708 254.111498 
L 111.886541 254.001132 
L 111.998924 253.977811 
L 112.315347 253.872081 
L 112.427372 253.826673 
L 112.81562 253.719113 
L 112.92836 253.677416 
L 113.190825 253.570269 
L 113.302493 253.520351 
L 113.494563 253.409795 
L 113.606945 253.338836 
L 113.744699 253.235556 
L 113.85601 253.201958 
L 114.298573 253.100933 
L 114.410599 252.971732 
L 114.512976 252.877698 
L 114.624823 252.639618 
L 114.709512 252.542574 
L 114.822431 252.34647 
L 114.923915 252.238312 
L 115.038799 252.003616 
L 115.084717 251.908498 
L 115.198529 251.524697 
L 115.227652 251.500544 
L 115.33932 251.06295 
L 115.35272 251.06295 
L 115.464031 250.851294 
L 115.692192 250.743728 
L 115.804217 250.541796 
L 115.995929 250.433942 
L 116.109205 250.326102 
L 116.228199 250.221868 
L 116.34076 250.094422 
L 116.478335 249.997975 
L 116.590361 249.842311 
L 116.674871 249.748892 
L 116.786539 249.579996 
L 116.871407 249.486485 
L 116.983254 249.263649 
L 117.050076 249.167121 
L 117.162638 248.890935 
L 117.193012 248.820418 
L 117.304858 248.466579 
L 117.335947 248.379648 
L 117.447258 248.238062 
L 117.907688 248.132146 
L 118.019713 248.086149 
L 118.247159 247.981097 
L 118.359363 247.894477 
L 119.283439 247.784745 
L 119.39475 247.775595 
L 119.730112 247.666585 
L 119.84178 247.558401 
L 119.980248 247.454977 
L 120.092631 247.319924 
L 120.141051 247.251771 
L 120.252361 247.167796 
L 120.569856 247.085103 
L 120.681167 247.031791 
L 121.481068 246.936441 
L 121.592736 246.83084 
L 121.999209 246.73959 
L 122.111413 246.603476 
L 122.285079 246.507297 
L 122.396747 246.325059 
L 123.464295 246.227721 
L 123.576856 246.080687 
L 123.696564 245.982824 
L 123.808233 245.847735 
L 124.018169 245.742215 
L 124.135376 245.456392 
L 124.250438 245.34687 
L 124.362285 245.295581 
L 124.554176 245.204141 
L 124.666023 244.938001 
L 124.732845 244.902486 
L 124.844513 244.586369 
L 124.911514 244.559483 
L 125.023182 244.228445 
L 125.125917 244.145388 
L 125.237763 243.614769 
L 125.429654 243.541775 
L 125.540965 243.484278 
L 125.679791 243.392856 
L 125.792531 243.10691 
L 125.983528 243.014689 
L 126.096447 242.799238 
L 126.358733 242.694346 
L 126.47183 242.570361 
L 126.805406 242.470112 
L 126.917431 242.322443 
L 127.216344 242.214349 
L 127.331407 242.110758 
L 127.484348 242.011849 
L 127.596731 241.88165 
L 127.663017 241.790883 
L 127.774864 241.60803 
L 127.805952 241.550182 
L 127.918156 240.910832 
L 127.948887 240.854259 
L 128.06127 240.312082 
L 128.091823 240.224212 
L 128.203848 239.79839 
L 128.306225 239.763579 
L 128.417536 239.641288 
L 129.271038 239.532755 
L 129.382885 239.522509 
L 129.66411 239.421597 
L 129.775778 239.362409 
L 130.539588 239.25192 
L 130.652507 239.208218 
L 130.968394 239.100958 
L 131.079884 239.069421 
L 131.379333 238.961875 
L 131.491537 238.900505 
L 131.754538 238.798301 
L 131.867099 238.691555 
L 132.058275 238.589551 
L 132.170122 238.505177 
L 132.290545 238.403553 
L 132.402392 238.307719 
L 132.540682 238.209551 
L 132.652886 238.096028 
L 132.772951 238.001103 
L 132.886049 237.804436 
L 132.969487 237.717811 
L 133.081334 237.54813 
L 133.166023 237.440304 
L 133.27787 237.234038 
L 133.326825 237.145693 
L 133.438851 236.813641 
L 133.523361 236.70971 
L 133.635029 236.48139 
L 133.737764 236.377782 
L 133.84979 236.133259 
L 135.095649 236.027223 
L 135.207138 235.93438 
L 135.66739 235.841478 
L 135.778879 235.786714 
L 135.863926 235.690865 
L 135.97613 235.462176 
L 136.024728 235.391334 
L 136.137111 235.059084 
L 136.310598 234.949805 
L 136.423696 234.922766 
L 137.579148 234.81788 
L 137.690816 234.782585 
L 138.043688 234.683596 
L 138.155356 234.621976 
L 138.347425 234.511049 
L 138.460701 234.459874 
L 138.686896 234.350549 
L 138.799279 234.321966 
L 139.133569 234.213432 
L 139.245773 234.160287 
L 139.47304 234.054293 
L 139.585423 233.98373 
L 139.723177 233.877618 
L 139.835024 233.749288 
L 139.955446 233.644859 
L 140.067829 233.487204 
L 140.259184 233.378205 
L 140.37246 233.276523 
L 140.437853 233.169318 
L 140.550236 233.099361 
L 140.670123 232.992913 
L 140.782684 232.839108 
L 140.848792 232.740039 
L 140.960996 232.529234 
L 141.009594 232.428205 
L 141.122691 232.174474 
L 141.277597 232.07756 
L 141.389265 231.994472 
L 141.777871 231.883836 
L 141.889003 231.869075 
L 142.313878 231.759841 
L 142.425546 231.737866 
L 142.635482 231.633709 
L 142.747865 231.579497 
L 142.957086 231.500059 
L 143.068576 231.306384 
L 143.439493 231.196577 
L 143.553305 231.151554 
L 143.761097 231.044793 
L 143.873122 230.95402 
L 144.0291 230.844207 
L 144.142734 230.763317 
L 144.279237 230.653334 
L 144.393764 230.497519 
L 144.511507 230.411116 
L 144.622818 230.367589 
L 144.797377 230.256742 
L 144.908688 230.186149 
L 145.136848 230.081621 
L 145.248874 229.956663 
L 145.333384 229.849675 
L 145.44541 229.733175 
L 145.547787 229.656978 
L 145.659634 229.432617 
L 145.76219 229.326721 
L 145.874394 229.066623 
L 146.458999 228.956948 
L 146.570667 228.83537 
L 146.762737 228.768931 
L 146.874047 228.716208 
L 147.173675 228.612081 
L 147.285165 228.491087 
L 147.370211 228.392333 
L 147.48188 228.250232 
L 147.584614 228.146596 
L 147.696997 227.925184 
L 147.745416 227.838593 
L 147.858335 227.43694 
L 147.924085 227.39754 
L 148.03629 226.942264 
L 148.067021 226.856157 
L 148.178867 226.355769 
L 148.192089 226.355769 
L 148.303757 225.829966 
L 148.317157 225.829966 
L 148.429361 225.024263 
L 148.442226 225.024263 
L 148.553894 224.471778 
L 148.620895 224.401871 
L 148.733813 223.940977 
L 148.76383 223.879562 
L 148.875319 223.434631 
L 148.924632 223.365528 
L 149.036657 222.702424 
L 149.121168 222.681123 
L 149.233015 221.981774 
L 149.246236 221.981774 
L 149.358262 221.24383 
L 149.407038 221.181905 
L 149.518528 220.845073 
L 149.549974 220.845065 
L 149.661463 220.288394 
L 149.692909 220.182305 
L 149.804756 219.514674 
L 149.853711 219.423086 
L 149.96663 218.637505 
L 149.996646 218.625823 
L 150.103848 217.977663 
L 150.108314 218.125385 
L 150.121715 218.125385 
L 150.233919 217.330949 
L 150.282517 217.324813 
L 150.300384 217.603294 
L 150.389897 216.845132 
L 150.393291 216.845132 
L 150.443319 216.838604 
L 150.532653 216.469786 
L 150.55463 216.538824 
L 150.586254 216.511859 
L 150.604121 216.988965 
L 150.693634 216.219668 
L 150.697207 216.219668 
L 150.818524 216.115232 
L 150.929835 216.086854 
L 151.104394 215.976697 
L 151.216241 215.880887 
L 151.265196 215.822643 
L 151.377222 215.085209 
L 151.390265 215.085209 
L 151.501754 214.645053 
L 151.551067 214.549503 
L 151.662914 213.8408 
L 151.747603 213.829168 
L 151.76547 214.280735 
L 151.854983 213.811391 
L 151.858556 213.811391 
L 151.872671 213.811391 
L 151.890538 213.65806 
L 151.980051 214.466901 
L 151.98291 214.466901 
L 152.015606 214.4155 
L 152.122808 217.222258 
L 152.127274 217.222004 
L 152.140675 217.222004 
L 152.194275 216.932062 
L 152.194454 217.94235 
L 152.251092 217.637459 
L 152.372944 217.535509 
L 152.488722 216.980154 
L 152.730282 216.909262 
L 152.841772 216.587332 
L 153.051887 216.51441 
L 153.163912 216.137408 
L 153.284156 216.086103 
L 153.302023 215.908739 
L 153.37367 216.595451 
L 153.394753 216.443173 
L 153.427092 216.335819 
L 153.462825 216.092622 
L 153.498738 217.232457 
L 153.536794 216.996143 
L 153.605761 216.93219 
L 153.718143 215.917638 
L 153.730829 215.917638 
L 153.802297 215.321052 
L 153.842497 215.388543 
L 153.873764 215.479732 
L 153.985075 216.969306 
L 153.998833 216.969306 
L 154.110679 216.115678 
L 154.123901 216.115678 
L 154.235748 215.414497 
L 154.30257 215.385189 
L 154.338304 215.224938 
L 154.338482 216.633026 
L 154.412273 216.352679 
L 154.659908 216.246294 
L 154.771219 216.012043 
L 154.802843 215.996064 
L 154.914511 215.499294 
L 154.927912 215.499294 
L 154.999379 215.017877 
L 155.035292 216.799291 
L 155.0369 216.799291 
L 155.05298 216.799291 
L 155.070847 216.649137 
L 155.071025 218.054648 
L 155.162861 217.720691 
L 155.213782 217.720596 
L 155.267383 217.573136 
L 155.285428 219.300868 
L 155.322949 219.29946 
L 155.33885 219.29946 
L 155.392451 218.942193 
L 155.44623 219.544321 
L 155.449625 219.544321 
L 155.463919 219.544321 
L 155.57112 218.586429 
L 155.575051 219.50539 
L 155.588987 219.50539 
L 155.696188 221.986919 
L 155.700298 221.792281 
L 155.714055 221.792281 
L 155.731922 221.659619 
L 155.821435 223.7819 
L 155.822329 223.7819 
L 155.839124 223.7819 
L 155.856991 223.585331 
L 155.857169 225.043549 
L 155.949362 224.625908 
L 155.964192 224.625908 
L 156.053526 227.276249 
L 156.075503 227.063346 
L 156.08926 227.063346 
L 156.20075 231.202483 
L 156.214329 231.202483 
L 156.232195 231.033126 
L 156.268108 232.469614 
L 156.324389 232.128349 
L 156.339397 232.128349 
L 156.450886 231.846279 
L 156.500199 231.753675 
L 156.61151 231.572488 
L 156.714602 231.499707 
L 156.826806 230.980649 
L 156.857537 230.886698 
L 156.946872 230.653578 
L 156.94705 230.985658 
L 156.968133 230.964082 
L 157.000472 230.936004 
L 157.112676 230.110178 
L 157.143408 230.023709 
L 157.255254 229.444514 
L 157.268476 229.444514 
L 157.380144 228.956621 
L 157.429278 228.87777 
L 157.541303 227.844508 
L 157.554346 227.844508 
L 157.666193 226.950544 
L 157.679415 226.950544 
L 157.791261 226.016536 
L 157.804483 226.016536 
L 157.916151 225.264904 
L 157.929551 225.264904 
L 158.041041 224.673993 
L 158.072487 224.648401 
L 158.183797 224.332921 
L 159.305303 224.223797 
L 159.417328 224.202469 
L 160.055713 224.09477 
L 160.167917 224.069602 
L 161.056259 223.973985 
L 161.167928 223.54252 
L 161.181328 223.54252 
L 161.292639 223.350101 
L 161.413597 223.267549 
L 161.524908 222.926521 
L 161.949605 222.830011 
L 162.061451 222.707873 
L 162.110407 222.706582 
L 162.222075 222.141978 
L 162.235475 222.141978 
L 162.347143 221.663916 
L 162.414144 221.608183 
L 162.526884 220.920721 
L 162.539212 220.920721 
L 162.650702 220.373166 
L 162.664281 220.373166 
L 162.776128 219.510588 
L 162.860817 219.40421 
L 162.972306 219.084192 
L 163.075219 219.027 
L 163.187066 218.203135 
L 163.218155 218.138412 
L 163.330359 216.969876 
L 163.343223 216.969876 
L 163.454891 216.501479 
L 163.789896 216.395838 
L 163.901742 216.37043 
L 163.986432 216.31938 
L 164.098278 215.538679 
L 164.1115 215.538679 
L 164.223347 214.731497 
L 164.540306 214.64338 
L 164.651616 214.583578 
L 165.522985 214.473727 
L 165.635368 214.448296 
L 166.041125 214.338457 
L 166.153508 214.31529 
L 168.703294 214.210682 
L 168.815141 214.176515 
L 169.382236 214.06815 
L 169.495155 214.016218 
L 170.025445 213.905952 
L 170.14158 213.839723 
L 170.364916 213.735651 
L 170.479264 213.600589 
L 170.936657 213.495129 
L 171.048146 213.467599 
L 171.526265 213.365152 
L 171.637397 213.299277 
L 172.115873 213.194005 
L 172.227541 213.139599 
L 172.580412 213.065889 
L 172.691723 212.948929 
L 172.741214 212.863845 
L 172.852525 212.732778 
L 173.17002 212.624859 
L 173.281867 212.530159 
L 173.40229 212.426139 
L 173.515923 212.23168 
L 173.545225 212.166568 
L 173.656714 211.996709 
L 173.884696 211.886313 
L 173.9969 211.856183 
L 174.367102 211.761969 
L 174.478771 211.68198 
L 174.742307 211.57902 
L 174.855226 211.483929 
L 175.028178 211.404729 
L 175.139667 211.304458 
L 175.278315 211.195693 
L 175.389983 211.043419 
L 175.564185 210.935283 
L 175.676032 210.80107 
L 176.332462 210.691338 
L 176.443951 210.686223 
L 180.245314 210.57697 
L 180.357518 210.566164 
L 181.120792 210.458881 
L 181.232281 210.427077 
L 181.99627 210.316665 
L 182.109189 210.291087 
L 182.728813 210.181236 
L 182.841375 210.144983 
L 184.158166 210.034774 
L 184.271263 210.027508 
L 186.212859 209.916478 
L 186.334712 209.908166 
L 187.195539 209.801809 
L 187.307207 209.779363 
L 187.803014 209.672739 
L 187.914861 209.627174 
L 188.321154 209.516598 
L 188.437646 209.500678 
L 188.946496 209.390448 
L 189.059057 209.360284 
L 189.589704 209.250972 
L 189.701372 209.225633 
L 190.01851 209.115251 
L 190.130357 209.10358 
L 190.697452 208.993044 
L 190.813051 208.981845 
L 191.090524 208.875506 
L 191.20255 208.832148 
L 191.733733 208.721884 
L 191.847187 208.67614 
L 192.251873 208.569577 
L 192.364077 208.530324 
L 192.627078 208.451087 
L 192.738389 208.32735 
L 193.002283 208.22158 
L 193.114844 208.106058 
L 193.30602 208.005122 
L 193.417867 207.933737 
L 194.252966 207.827622 
L 194.365527 207.761813 
L 194.681772 207.658321 
L 194.793797 207.603827 
L 195.003376 207.499779 
L 195.115401 207.426471 
L 195.289246 207.31815 
L 195.403416 207.178951 
L 195.592984 207.068317 
L 195.707153 207.061727 
L 196.504196 206.955421 
L 196.615685 206.92268 
L 197.093804 206.813584 
L 197.20708 206.758553 
L 197.594077 206.647961 
L 197.709318 206.639862 
L 198.648224 206.5314 
L 198.760607 206.509138 
L 199.291433 206.40073 
L 199.404352 206.374901 
L 199.863174 206.267074 
L 199.975735 206.237534 
L 200.202645 206.13664 
L 200.314134 206.077614 
L 200.667184 205.96983 
L 200.780282 205.918271 
L 201.042389 205.812236 
L 201.155487 205.731962 
L 201.703465 205.63521 
L 201.81549 205.554203 
L 202.07867 205.451561 
L 202.190516 205.400145 
L 202.400274 205.294245 
L 202.513193 205.234591 
L 202.739745 205.125691 
L 202.852128 205.067975 
L 203.007749 204.957365 
L 203.119595 204.879224 
L 203.204285 204.769009 
L 203.316131 204.661528 
L 203.40082 204.560508 
L 203.514275 204.264119 
L 203.543756 204.192569 
L 203.655424 204.012878 
L 203.758159 203.90378 
L 203.87072 203.783778 
L 204.044029 203.683617 
L 204.156233 203.604481 
L 204.294166 203.498163 
L 204.406548 203.397509 
L 204.544302 203.294291 
L 204.656506 203.180225 
L 204.812306 203.071357 
L 204.92451 202.921898 
L 205.062442 202.81232 
L 205.17554 202.733495 
L 205.36618 202.629783 
L 205.478741 202.479827 
L 205.616317 202.378068 
L 205.728163 202.220151 
L 205.812852 202.149473 
L 205.925414 201.756776 
L 206.009388 201.647654 
L 206.121593 201.542526 
L 206.313126 201.435481 
L 206.426045 201.274769 
L 206.509662 201.174392 
L 206.62133 201.032998 
L 206.706198 200.941019 
L 206.81858 200.755038 
L 206.884867 200.651598 
L 206.997249 200.490242 
L 207.045669 200.398638 
L 207.157337 200.208037 
L 207.260072 200.098051 
L 207.371561 199.969088 
L 207.849679 199.904557 
L 207.96099 199.813591 
L 208.117683 199.735748 
L 208.22953 199.455045 
L 208.36782 199.405451 
L 208.479309 199.253839 
L 208.65369 199.150272 
L 208.767681 198.99457 
L 208.850226 198.967688 
L 208.961537 198.736572 
L 209.243298 198.632361 
L 209.354966 198.526913 
L 209.493435 198.429325 
L 209.607068 198.180221 
L 209.654237 198.131032 
L 209.765726 197.853296 
L 209.940107 197.742827 
L 210.052133 197.68929 
L 210.15451 197.588894 
L 210.26725 197.373532 
L 210.315312 197.302367 
L 210.427338 196.926746 
L 210.476114 196.858759 
L 210.588676 196.421076 
L 210.654783 196.324096 
L 210.76663 196.073896 
L 210.815585 195.989202 
L 210.92779 195.756257 
L 210.994254 195.663605 
L 211.106637 195.39916 
L 211.155057 195.30955 
L 211.267082 195.062711 
L 211.440927 194.960493 
L 211.552774 194.90761 
L 211.708931 194.810992 
L 211.820599 194.71712 
L 211.959067 194.623915 
L 212.070735 194.528705 
L 212.191337 194.44418 
L 212.303184 194.312996 
L 212.477207 194.210449 
L 212.58959 194.054721 
L 212.69161 193.949152 
L 212.80435 193.872355 
L 212.92388 193.768133 
L 213.035905 193.663127 
L 213.084682 193.599156 
L 213.196172 193.388552 
L 213.299085 193.285603 
L 213.410932 193.119005 
L 213.495621 193.023358 
L 213.607825 192.891888 
L 213.727891 192.802957 
L 213.83938 192.686472 
L 215.121509 192.57702 
L 215.237108 192.519979 
L 215.371646 192.41015 
L 215.484029 192.233919 
L 215.568182 192.143706 
L 215.680743 191.958164 
L 215.818318 191.851639 
L 215.93088 191.722202 
L 216.068455 191.618109 
L 216.181731 191.514181 
L 216.300725 191.411256 
L 216.413644 191.207508 
L 216.479394 191.125805 
L 216.591419 190.900256 
L 216.658063 190.836734 
L 216.76991 190.589564 
L 216.854599 190.496829 
L 216.966982 190.272778 
L 217.015401 190.192709 
L 217.127069 189.971114 
L 217.176203 189.865769 
L 217.288764 189.669189 
L 217.337005 189.592521 
L 217.449209 189.352489 
L 217.533541 189.24753 
L 217.645209 188.993149 
L 217.71221 188.909326 
L 217.824057 188.6551 
L 219.284498 188.544777 
L 219.396702 188.533389 
L 220.285044 188.423889 
L 220.397427 188.403525 
L 221.339192 188.295828 
L 221.451574 188.271946 
L 222.089601 188.166501 
L 222.201448 188.137301 
L 222.572008 188.030647 
L 222.683319 188.019404 
L 223.179483 187.908426 
L 223.291865 187.84797 
L 223.572554 187.73869 
L 223.684044 187.714366 
L 224.090695 187.608402 
L 224.20272 187.578895 
L 224.698169 187.47 
L 224.81091 187.434232 
L 225.073374 187.330142 
L 225.185042 187.276889 
L 225.359245 187.171057 
L 225.471806 187.108091 
L 225.805917 186.997603 
L 225.918479 186.96219 
L 226.091788 186.85947 
L 226.203813 186.740205 
L 226.609928 186.634256 
L 226.721775 186.535387 
L 226.842198 186.440549 
L 226.953687 186.380927 
L 227.217403 186.27223 
L 227.329786 186.159149 
L 227.664075 186.0518 
L 227.775743 186.033236 
L 227.967813 185.93939 
L 228.079659 185.85308 
L 228.253683 185.747345 
L 228.365173 185.655446 
L 228.55742 185.547432 
L 228.669446 185.419106 
L 228.825424 185.321535 
L 228.936735 185.283759 
L 229.093428 185.198072 
L 229.205274 185.061457 
L 229.289964 184.963947 
L 229.401989 184.76457 
L 229.468633 184.665658 
L 229.580479 184.490913 
L 229.825971 184.380592 
L 229.939783 184.376453 
L 230.076107 184.297594 
L 230.187597 184.170176 
L 230.415578 184.070262 
L 230.527961 183.946521 
L 230.629981 183.837562 
L 230.749332 183.725519 
L 230.826517 183.615427 
L 230.938364 183.440518 
L 231.04092 183.334591 
L 231.153482 183.100381 
L 231.201722 183.0092 
L 231.313212 182.84572 
L 231.969999 182.735047 
L 232.08131 182.70618 
L 233.149215 182.617174 
L 233.260525 182.58573 
L 233.57802 182.480061 
L 233.68951 182.436109 
L 234.185495 182.348911 
L 234.297878 182.155931 
L 234.417765 182.079301 
L 234.529433 181.926669 
L 234.596434 181.819743 
L 234.708638 181.57165 
L 234.828704 181.460929 
L 234.94055 181.356504 
L 235.221775 181.269419 
L 235.333444 181.134239 
L 235.561247 181.034455 
L 235.672736 180.927327 
L 236.007919 180.82273 
L 236.119945 180.736253 
L 236.29379 180.635526 
L 236.405279 180.527236 
L 236.615394 180.417435 
L 236.730278 180.274699 
L 236.81193 180.194292 
L 236.924134 179.90919 
L 236.972732 179.815411 
L 237.084221 179.660837 
L 237.276469 179.559796 
L 237.38921 179.428587 
L 237.490872 179.355284 
L 237.602719 179.113382 
L 237.705275 179.018279 
L 237.816407 178.993788 
L 238.08048 178.893925 
L 238.191791 178.757275 
L 238.562886 178.668368 
L 238.675269 178.454119 
L 238.848757 178.372753 
L 238.960782 178.184767 
L 239.06316 178.125073 
L 239.174649 177.98836 
L 239.259696 177.895817 
L 239.3719 177.68755 
L 239.438365 177.588057 
L 239.550747 177.230302 
L 239.599167 177.12091 
L 239.711371 176.721934 
L 239.742102 176.659047 
L 239.854306 176.273138 
L 239.902904 176.162085 
L 240.015108 175.723357 
L 240.063706 175.628735 
L 240.175732 175.357822 
L 240.206642 175.2732 
L 240.318667 174.857414 
L 240.33171 174.857414 
L 240.443557 174.300941 
L 240.492512 174.20803 
L 240.604716 173.60515 
L 240.635447 173.510001 
L 240.746937 173.039703 
L 243.029612 172.928856 
L 243.142531 172.895993 
L 243.476285 172.790132 
L 243.587774 172.745392 
L 244.333896 172.634446 
L 244.4461 172.613589 
L 244.869903 172.506601 
L 244.981929 172.436754 
L 245.280842 172.328788 
L 245.393761 172.280324 
L 245.513112 172.186129 
L 245.62478 172.078784 
L 245.852583 171.97921 
L 245.964251 171.897115 
L 246.192054 171.790118 
L 246.305152 171.717803 
L 246.477925 171.613842 
L 246.590307 171.531457 
L 246.710194 171.423251 
L 246.822398 171.336207 
L 247.299802 171.225115 
L 247.413078 171.19499 
L 247.782209 171.087525 
L 247.895306 171.044544 
L 248.211014 170.934938 
L 248.324648 170.888265 
L 248.621953 170.792287 
L 248.7338 170.712521 
L 249.104359 170.608839 
L 249.216564 170.523026 
L 249.551032 170.420838 
L 249.6627 170.356715 
L 249.979838 170.247647 
L 250.091506 170.198281 
L 250.587312 170.087287 
L 250.700767 170.059009 
L 250.962517 169.954596 
L 251.074543 169.917295 
L 251.194787 169.808683 
L 251.306098 169.741259 
L 251.516391 169.634139 
L 251.629668 169.554846 
L 251.820129 169.447791 
L 251.932869 169.366832 
L 252.105999 169.259057 
L 252.218025 169.207079 
L 252.409737 169.10282 
L 252.522834 169.010492 
L 252.820675 168.903883 
L 252.933951 168.840812 
L 253.19588 168.733471 
L 253.308263 168.651777 
L 253.499618 168.547159 
L 253.611643 168.463112 
L 253.785488 168.357456 
L 253.897514 168.276201 
L 254.053492 168.174857 
L 254.165696 168.062555 
L 254.285761 167.952161 
L 254.397608 167.859793 
L 254.553765 167.754995 
L 254.666148 167.692749 
L 254.786035 167.587103 
L 254.898418 167.46082 
L 255.036171 167.352853 
L 255.148554 167.222025 
L 255.250574 167.121487 
L 255.362957 166.983444 
L 255.44711 166.889966 
L 255.559136 166.74343 
L 255.697247 166.635786 
L 255.809272 166.4954 
L 255.893783 166.386552 
L 256.007238 166.240545 
L 256.090319 166.134639 
L 256.202165 165.9717 
L 256.322588 165.865605 
L 256.434614 165.69341 
L 256.519124 165.592934 
L 256.632222 165.46692 
L 256.697793 165.377078 
L 256.810176 165.170405 
L 256.876462 165.091323 
L 256.988488 164.863675 
L 257.055131 164.783429 
L 257.167336 164.57374 
L 257.251667 164.474543 
L 257.364765 164.289525 
L 257.412469 164.213321 
L 257.52378 164.147985 
L 258.127146 164.037417 
L 258.238992 163.903289 
L 258.305815 163.802913 
L 258.418197 163.629528 
L 258.520217 163.529116 
L 258.633672 163.36638 
L 258.716753 163.259676 
L 258.828422 163.070256 
L 258.895422 162.99761 
L 259.007091 162.836801 
L 259.074092 162.752979 
L 259.18576 162.511171 
L 259.252761 162.411404 
L 259.365858 162.21025 
L 259.413563 162.129951 
L 259.525231 161.954729 
L 259.592232 161.882782 
L 259.704257 161.647944 
L 259.788768 161.545128 
L 259.901686 161.3511 
L 259.94957 161.263615 
L 260.061417 160.894383 
L 260.110372 160.804222 
L 260.222397 160.519006 
L 260.253307 160.436748 
L 260.365511 160.172637 
L 260.396242 160.08408 
L 260.507553 159.922697 
L 260.610645 159.824203 
L 260.722671 159.474629 
L 261.50399 159.364045 
L 261.615837 159.251634 
L 261.950663 159.1578 
L 262.062688 158.842418 
L 262.093598 158.782511 
L 262.205802 158.382114 
L 262.272267 158.273375 
L 262.384471 157.799248 
L 262.433069 157.744818 
L 262.544916 157.262002 
L 262.611738 157.159954 
L 262.725193 156.656246 
L 262.790407 156.545544 
L 262.902433 156.094034 
L 262.915476 156.094034 
L 263.026965 155.720197 
L 263.040544 155.720197 
L 263.152391 155.182756 
L 263.201346 155.077654 
L 263.313193 154.491979 
L 263.344281 154.412605 
L 263.456307 153.95218 
L 263.487217 153.930525 
L 263.599599 153.253919 
L 263.612285 153.253919 
L 263.723953 152.680932 
L 263.737353 152.680932 
L 263.849736 151.817235 
L 263.951756 151.713839 
L 264.063603 151.165037 
L 264.112558 151.119119 
L 264.224405 150.469662 
L 264.255493 150.409994 
L 264.366804 150.208497 
L 264.416296 150.111254 
L 264.5285 149.397417 
L 264.559231 149.355966 
L 264.671256 148.950331 
L 264.684299 148.950331 
L 264.796146 148.323681 
L 264.845101 148.317666 
L 264.956948 147.769398 
L 264.988037 147.721743 
L 265.099883 146.98623 
L 265.130972 146.946777 
L 265.242461 146.760434 
L 265.25604 146.760434 
L 265.368066 145.895645 
L 265.398975 145.87007 
L 265.510822 145.436431 
L 265.541911 145.414241 
L 265.653757 144.73493 
L 265.684846 144.686266 
L 265.797229 144.079017 
L 265.827781 144.01422 
L 265.93927 143.870121 
L 265.952849 143.870121 
L 266.06416 143.613011 
L 266.077918 143.613011 
L 266.189228 143.295501 
L 266.202986 143.295501 
L 266.314475 142.752349 
L 266.328054 142.752349 
L 266.44008 141.848511 
L 266.453123 141.848511 
L 266.565148 140.793055 
L 266.578191 140.793055 
L 266.690038 139.933296 
L 266.721126 139.927662 
L 266.832794 139.293738 
L 266.846194 139.293738 
L 266.958041 138.314196 
L 266.98913 138.284556 
L 267.100619 137.682312 
L 267.185666 137.593296 
L 267.298048 136.430267 
L 267.328601 136.355165 
L 267.440448 135.543166 
L 267.596604 135.435454 
L 267.720779 135.111708 
L 267.73954 135.109966 
L 267.851922 134.284292 
L 267.864608 134.284292 
L 267.976276 133.628042 
L 268.007543 133.539397 
L 268.120105 132.922226 
L 268.150478 132.842796 
L 268.263933 132.350641 
L 268.275547 132.350641 
L 268.387394 131.726872 
L 268.454216 131.725907 
L 268.565705 131.449039 
L 268.632885 131.399024 
L 268.745268 130.719965 
L 268.757953 130.719965 
L 268.869979 129.917581 
L 268.918755 129.904463 
L 269.030959 129.00821 
L 269.061691 128.964208 
L 269.173001 128.551136 
L 269.222493 128.46513 
L 269.334161 127.785202 
L 269.401162 127.675152 
L 269.514617 127.090347 
L 269.561964 127.074749 
L 269.673632 126.276594 
L 269.722766 126.25463 
L 269.834077 125.997368 
L 271.134251 125.887372 
L 271.246098 125.878491 
L 272.045463 125.78287 
L 272.157489 125.666948 
L 272.331334 125.563534 
L 272.443538 125.451877 
L 272.58147 125.340896 
L 272.693317 125.247757 
L 273.099611 125.137795 
L 273.2111 125.08253 
L 273.671352 124.972154 
L 273.783377 124.934017 
L 274.171625 124.824209 
L 274.28365 124.786133 
L 274.564697 124.676291 
L 274.67833 124.619946 
L 275.279373 124.514509 
L 275.393185 124.421006 
L 275.58311 124.331145 
L 275.6946 124.259265 
L 276.04765 124.154085 
L 276.160033 124.092218 
L 276.279919 124.010009 
L 276.391766 123.871349 
L 276.494322 123.764407 
L 276.60742 123.63515 
L 276.726592 123.533811 
L 276.83826 123.46428 
L 276.940995 123.382859 
L 277.052663 123.260125 
L 277.423401 123.150595 
L 277.536499 123.12804 
L 277.798606 123.022702 
L 277.910274 122.987633 
L 278.06661 122.878513 
L 278.178635 122.786817 
L 278.459682 122.677517 
L 278.57135 122.649615 
L 278.781286 122.542795 
L 278.894026 122.480353 
L 279.04929 122.378412 
L 279.161315 122.294688 
L 279.281559 122.190268 
L 279.393227 122.076105 
L 279.513829 121.985317 
L 279.625676 121.864761 
L 279.817566 121.758626 
L 279.930843 121.651175 
L 280.031969 121.548512 
L 280.143816 121.394176 
L 280.282106 121.283392 
L 280.394846 121.201785 
L 280.60371 121.104754 
L 280.715736 120.976684 
L 281.461321 120.866681 
L 281.576742 120.842466 
L 281.81866 120.81125 
L 281.929792 120.721529 
L 282.10453 120.713109 
L 282.215841 120.414925 
L 282.676271 120.312134 
L 282.788118 120.190808 
L 282.890674 120.124622 
L 283.001985 120.051428 
L 283.516015 119.946239 
L 283.628041 119.781137 
L 283.712551 119.683754 
L 283.824934 119.525739 
L 283.944821 119.428082 
L 284.057204 119.286178 
L 284.159224 119.178866 
L 284.272143 119.027849 
L 284.35576 118.916847 
L 284.467785 118.774947 
L 284.552296 118.674403 
L 284.664321 118.547041 
L 284.766699 118.453814 
L 284.879081 118.322815 
L 284.963235 118.225625 
L 285.075617 118.025155 
L 285.195504 117.929291 
L 285.307708 117.759865 
L 285.39204 117.673652 
L 285.504244 117.459645 
L 285.552842 117.395177 
L 285.66451 117.190071 
L 285.785112 117.094351 
L 285.896959 116.979509 
L 286.14245 116.872432 
L 286.254118 116.799314 
L 286.428321 116.713024 
L 286.540525 116.516218 
L 286.624857 116.422851 
L 286.737597 116.229266 
L 286.821392 116.120076 
L 286.932882 116.059043 
L 287.411 115.951942 
L 287.523204 115.909206 
L 287.786205 115.798164 
L 287.897873 115.747019 
L 288.661684 115.635952 
L 288.795328 115.633556 
L 290.073169 115.52261 
L 290.186445 115.481321 
L 290.376906 115.374514 
L 290.488932 115.330253 
L 290.769978 115.220906 
L 290.882004 115.189543 
L 291.859859 115.083313 
L 291.971349 115.063612 
L 292.556668 114.953893 
L 292.668515 114.921857 
L 293.128409 114.814357 
L 293.240614 114.761479 
L 293.664417 114.66239 
L 293.775727 114.61599 
L 294.218291 114.510404 
L 294.330495 114.453207 
L 294.539895 114.350163 
L 294.652278 114.282883 
L 294.772165 114.176247 
L 294.88687 114.042479 
L 295.075902 113.933507 
L 295.187749 113.8622 
L 295.272438 113.777434 
L 295.38357 113.73558 
L 297.362866 113.627225 
L 297.475248 113.608078 
L 297.755937 113.560373 
L 297.867427 113.38312 
L 298.023941 113.277896 
L 298.137396 113.174677 
L 298.309811 113.064815 
L 298.42952 112.983422 
L 298.577815 112.876102 
L 298.691627 112.796701 
L 298.810085 112.698875 
L 298.922646 112.562866 
L 299.006621 112.463643 
L 299.118825 112.298531 
L 299.221023 112.211924 
L 299.332692 112.118097 
L 299.453293 112.00751 
L 299.566391 111.833895 
L 299.685563 111.730096 
L 299.797052 111.694971 
L 300.007167 111.588038 
L 300.118657 111.506346 
L 300.203703 111.417942 
L 300.315371 111.297231 
L 300.918379 111.192536 
L 301.030226 111.001579 
L 301.150649 110.894175 
L 301.262853 110.748286 
L 301.347185 110.654701 
L 301.458853 110.560858 
L 301.579455 110.45345 
L 301.691302 110.375594 
L 301.758124 110.269988 
L 301.869971 110.161601 
L 302.00826 110.069313 
L 302.120107 109.955425 
L 302.276264 109.853305 
L 302.389004 109.733933 
L 302.508534 109.632371 
L 302.620202 109.411493 
L 302.75867 109.311407 
L 302.87141 109.190741 
L 302.973073 109.093129 
L 303.085099 108.944779 
L 303.098142 108.944779 
L 303.209452 108.803678 
L 304.366692 108.693675 
L 304.479432 108.673347 
L 305.224303 108.574061 
L 305.336864 108.461698 
L 306.349918 108.352232 
L 306.464266 108.315474 
L 306.957393 108.205472 
L 307.069239 108.189937 
L 307.725669 108.0814 
L 307.837516 108.056726 
L 308.190209 107.983 
L 308.302056 107.815262 
L 308.922752 107.704997 
L 309.034956 107.686658 
L 309.351558 107.591699 
L 309.462869 107.498837 
L 309.655295 107.388927 
L 309.766963 107.349071 
L 310.191302 107.238885 
L 310.305472 107.214412 
L 310.709442 107.103727 
L 310.828257 107.041321 
L 310.941712 106.93463 
L 311.053023 106.846621 
L 311.191849 106.743291 
L 311.303696 106.677688 
L 311.620654 106.570454 
L 311.732144 106.549423 
L 312.335331 106.43999 
L 312.448249 106.411736 
L 312.871338 106.317675 
L 312.982648 106.253463 
L 313.228676 106.142738 
L 313.340165 106.061811 
L 313.639615 105.955935 
L 313.751819 105.833111 
L 314.032686 105.773382 
L 314.143997 105.674266 
L 314.354291 105.573864 
L 314.466852 105.394674 
L 314.604427 105.293745 
L 314.716095 105.21561 
L 314.81883 105.151079 
L 314.93032 105.022803 
L 315.0511 104.925777 
L 315.163304 104.810927 
L 315.247636 104.709032 
L 315.359125 104.672806 
L 315.462039 104.577568 
L 315.573885 104.457583 
L 315.658575 104.354916 
L 315.771136 104.218887 
L 315.908711 104.111917 
L 316.020022 104.06304 
L 316.516186 103.958626 
L 316.628211 103.918833 
L 316.927125 103.809988 
L 317.03915 103.761697 
L 317.463132 103.650605 
L 317.593918 103.568748 
L 317.784736 103.479354 
L 317.896404 103.390455 
L 318.017006 103.333618 
L 318.128317 103.21595 
L 318.946085 103.107725 
L 319.057574 103.089773 
L 319.767962 102.983719 
L 319.879452 102.966251 
L 320.393304 102.858003 
L 320.505151 102.797301 
L 320.82211 102.687837 
L 320.933778 102.635375 
L 321.322383 102.528196 
L 321.433872 102.497416 
L 321.85839 102.390859 
L 321.970058 102.320967 
L 322.179994 102.219751 
L 322.291841 102.101042 
L 322.465865 102.001646 
L 322.577533 101.899264 
L 322.698135 101.791905 
L 322.809803 101.700424 
L 322.89467 101.604611 
L 323.006517 101.465111 
L 323.198408 101.373825 
L 323.309719 101.308853 
L 323.537879 101.208519 
L 323.649726 101.046301 
L 323.716548 100.954052 
L 323.828038 100.858808 
L 323.984552 100.748254 
L 324.096577 100.496131 
L 324.181088 100.407443 
L 324.292756 100.209184 
L 324.39549 100.113596 
L 324.506801 100.013411 
L 324.609893 99.905328 
L 324.72174 99.684698 
L 324.770695 99.590839 
L 324.883257 99.202735 
L 325.128033 99.095508 
L 325.239702 98.821326 
L 325.288836 98.717666 
L 325.401576 98.427219 
L 325.485371 98.361633 
L 325.596861 98.10563 
L 325.771242 98.009404 
L 325.883267 97.698908 
L 325.914177 97.63498 
L 326.026024 97.341044 
L 326.092846 97.260818 
L 326.20505 96.761521 
L 326.503785 96.652687 
L 326.615453 96.581679 
L 326.736055 96.49491 
L 326.848259 96.27256 
L 326.932591 96.171801 
L 327.044616 96.107202 
L 327.540065 96.009387 
L 327.651912 95.904284 
L 327.968871 95.795023 
L 328.080897 95.746668 
L 328.308342 95.643294 
L 328.420546 95.589368 
L 328.629946 95.478434 
L 328.743044 95.411734 
L 329.13022 95.306421 
L 329.242245 95.265256 
L 329.505425 95.15734 
L 329.61745 95.119615 
L 329.952097 95.010817 
L 330.063587 94.911833 
L 330.255835 94.810935 
L 330.369826 94.619969 
L 330.452371 94.521342 
L 330.56386 94.283385 
L 330.613173 94.224561 
L 330.725377 93.873107 
L 330.773975 93.763175 
L 330.885822 93.500149 
L 330.952644 93.416342 
L 331.064312 93.018972 
L 331.113446 92.921094 
L 331.226722 92.526481 
L 331.256381 92.452753 
L 331.368407 92.185313 
L 331.417183 92.110686 
L 331.528852 91.799621 
L 331.577986 91.748571 
L 331.690011 91.333003 
L 331.738788 91.252641 
L 331.850634 90.718033 
L 331.881723 90.695168 
L 331.99357 90.153025 
L 332.042525 90.066953 
L 332.154372 89.540458 
L 332.203327 89.433142 
L 332.316961 89.098104 
L 332.328395 89.098104 
L 332.440064 88.527906 
L 332.489198 88.462057 
L 332.601402 88.020247 
L 332.65 87.954956 
L 332.761847 87.630363 
L 332.810802 87.553748 
L 332.923006 87.040227 
L 332.953737 87.020242 
L 333.065941 86.425539 
L 333.114539 86.322633 
L 333.226743 85.822626 
L 333.257474 85.729428 
L 333.369679 85.06661 
L 333.40041 84.963971 
L 333.51315 84.091829 
L 333.543345 83.98294 
L 333.655192 83.381593 
L 333.68628 83.28593 
L 333.798127 82.574594 
L 333.847082 82.472502 
L 333.967327 81.901484 
L 333.972151 81.901484 
L 334.083819 81.233642 
L 334.115086 81.160837 
L 334.226754 80.526773 
L 334.240154 80.526773 
L 334.352358 79.754119 
L 334.383089 79.708821 
L 334.495472 78.810511 
L 334.526025 78.769162 
L 334.63805 77.78578 
L 334.66896 77.714039 
L 334.781164 76.81745 
L 334.794028 76.81745 
L 334.905518 76.474912 
L 334.936963 76.379744 
L 335.048989 75.334201 
L 335.062032 75.334201 
L 335.174236 74.533384 
L 335.1871 74.533384 
L 335.299126 73.408759 
L 335.330035 73.350901 
L 335.441882 72.493597 
L 335.490837 72.397544 
L 335.603578 72.056317 
L 335.776708 71.977247 
L 335.888376 71.488658 
L 335.919643 71.389936 
L 336.031311 70.602532 
L 336.044711 70.602532 
L 336.15638 69.919094 
L 336.16978 69.919094 
L 336.281984 69.017134 
L 336.294848 69.017134 
L 336.407231 68.046572 
L 336.419916 68.046572 
L 336.531942 67.285803 
L 336.616452 67.273275 
L 336.728478 66.352861 
L 336.759388 66.32082 
L 336.870698 66.176633 
L 336.92019 66.109713 
L 337.032036 65.380425 
L 337.063125 65.2958 
L 337.175686 65.05581 
L 337.20606 64.991303 
L 337.317371 64.582828 
L 337.348995 64.533984 
L 337.461378 63.923032 
L 337.474064 63.923032 
L 337.586089 63.057972 
L 337.634866 63.012985 
L 337.746534 62.305265 
L 337.813535 62.2259 
L 337.925203 61.494757 
L 337.938603 61.494757 
L 338.049914 61.139088 
L 338.117272 61.039128 
L 338.229834 60.882606 
L 338.295941 60.793795 
L 338.408324 60.494591 
L 338.47461 60.429878 
L 338.586814 59.274575 
L 338.599679 59.274575 
L 338.711704 58.26775 
L 338.742614 58.252732 
L 338.854639 57.67939 
L 339.260754 57.601541 
L 339.372779 57.115166 
L 339.385822 57.115166 
L 339.498026 56.175077 
L 339.510891 56.175077 
L 339.623095 55.184865 
L 339.635959 55.184865 
L 339.747627 54.40862 
L 339.761027 54.40862 
L 339.873231 53.157589 
L 339.886096 53.157589 
L 339.957563 52.55263 
L 339.997585 52.583 
L 340.011164 52.583 
L 340.122832 51.980873 
L 340.171966 51.973854 
L 340.279167 51.03579 
L 340.283813 51.199007 
L 340.314901 51.138654 
L 340.426391 50.59712 
L 340.457837 50.505438 
L 340.570041 50.314562 
L 340.618639 50.24732 
L 340.730664 49.683299 
L 340.779441 49.64302 
L 340.891645 48.382859 
L 340.904509 48.382859 
L 340.922555 48.553288 
L 341.015999 47.95537 
L 341.029577 47.95537 
L 341.141424 47.159422 
L 341.172513 47.159379 
L 341.19038 47.292206 
L 341.279893 46.74965 
L 341.28293 46.74965 
L 341.297581 46.74965 
L 341.369049 47.432065 
L 341.40907 47.417927 
L 341.422649 47.417927 
L 341.534496 46.58742 
L 341.76212 46.57126 
L 341.798033 46.776574 
L 341.873789 46.188965 
L 341.887189 46.188965 
L 341.998857 45.469436 
L 342.065858 45.37329 
L 342.177526 45.299827 
L 342.298128 45.233953 
L 342.409617 45.074492 
L 342.566131 44.971729 
L 342.677442 44.925117 
L 343.120005 44.850923 
L 343.231316 44.769132 
L 343.423742 44.663934 
L 343.538984 43.478726 
L 343.548811 43.478726 
L 343.566678 44.003051 
L 343.656191 42.970205 
L 343.659586 42.970205 
L 343.709613 42.884469 
L 343.72748 42.703702 
L 343.727659 43.341705 
L 343.820745 42.762769 
L 343.852548 42.715311 
L 343.870415 42.52242 
L 343.870594 43.067057 
L 343.963323 42.893337 
L 344.317088 42.783023 
L 344.43358 42.669536 
L 344.656559 42.560862 
L 344.768227 42.479991 
L 344.942429 42.406063 
L 345.054097 42.25276 
L 345.2283 42.173404 
L 345.339611 41.951401 
L 345.371235 41.865207 
L 345.483082 41.689418 
L 345.764307 41.59636 
L 345.878119 41.096785 
L 345.889375 41.096785 
L 346.001579 39.908485 
L 346.03231 39.820241 
L 346.143979 39.189178 
L 346.228846 39.082745 
L 346.34105 39.033687 
L 346.389648 38.977584 
L 346.500959 38.64338 
L 346.514717 38.64338 
L 346.626385 37.995836 
L 346.693386 37.946689 
L 346.78272 37.375078 
L 346.804875 37.481739 
L 346.818454 37.481739 
L 346.930301 36.547599 
L 346.997123 36.463137 
L 347.112901 35.620477 
L 347.140058 35.543932 
L 347.25262 34.673921 
L 347.282994 34.589527 
L 347.300861 35.255476 
L 347.390374 34.254151 
L 347.393947 34.254151 
L 347.443796 34.186758 
L 347.515263 33.989919 
L 347.515442 34.379319 
L 347.555107 34.100917 
L 347.568864 34.100917 
L 347.680532 33.461624 
L 347.693932 33.461624 
L 347.783267 32.739147 
L 347.783446 34.045195 
L 347.804529 33.942503 
L 347.836868 33.838758 
L 347.959435 32.889545 
L 347.961936 32.889545 
L 348.073961 31.685854 
L 348.104871 31.578225 
L 348.216539 30.881451 
L 348.22994 30.881451 
L 348.341965 29.777518 
L 348.372875 29.768714 
L 348.485079 28.994528 
L 348.51581 28.884156 
L 348.798643 26.734449 
L 348.80168 26.734449 
L 348.913885 25.633565 
L 348.926749 25.633565 
L 348.998216 33.624107 
L 349.038596 33.317469 
L 349.051817 33.317469 
L 349.163664 32.436003 
L 349.194752 32.433032 
L 349.212619 32.299591 
L 349.248532 38.426807 
L 349.298202 38.06151 
L 349.301954 38.06151 
L 349.414337 37.171858 
L 349.444889 37.123249 
L 349.556914 36.095171 
L 349.587824 36.100914 
L 349.605691 35.910126 
L 349.641604 39.704385 
L 349.695919 39.231639 
L 349.712892 39.231639 
L 349.766493 42.410131 
L 349.730938 39.230279 
L 349.826347 41.893481 
L 349.837961 41.893481 
L 349.855828 45.078193 
L 349.949093 44.337676 
L 349.963029 44.337676 
L 349.980896 44.652879 
L 350.070409 43.972019 
L 350.073804 43.972019 
L 350.088097 43.972019 
L 350.159565 43.483719 
L 350.177611 45.459932 
L 350.197443 45.337619 
L 350.213166 45.337619 
L 350.325549 44.384933 
L 350.338234 44.384933 
L 350.450617 43.376058 
L 350.463302 43.376058 
L 350.53477 42.789826 
L 350.534949 45.073152 
L 350.572469 44.800989 
L 350.588371 44.800989 
L 350.606238 44.608133 
L 350.660017 47.230707 
L 350.697359 47.025815 
L 350.713439 47.025815 
L 350.731306 48.060351 
L 350.824571 47.168142 
L 350.856374 47.101954 
L 350.963576 46.415142 
L 350.968221 46.420145 
L 351.017176 46.341033 
L 351.035043 47.671426 
L 351.128309 47.097335 
L 351.160112 47.017401 
L 351.177979 47.271494 
L 351.267492 46.904229 
L 351.271065 46.904229 
L 351.303047 46.902296 
L 351.415072 46.177856 
L 351.445982 46.168917 
L 351.553184 50.997004 
L 351.557293 50.799654 
L 351.57105 50.799654 
L 351.68254 50.265024 
L 351.713986 50.231118 
L 351.80332 49.534996 
L 351.803499 52.721797 
L 351.821723 52.619587 
L 351.839054 52.619587 
L 351.928389 59.699521 
L 351.950365 59.441186 
L 351.964122 59.441186 
L 351.999856 59.159459 
L 352.000035 59.570881 
L 352.075254 59.379966 
L 352.107058 59.297904 
L 352.142791 60.084892 
L 352.218368 59.776861 
L 352.232126 59.776861 
L 352.343615 60.758905 
L 352.357194 60.758905 
L 352.410795 80.72675 
L 352.468684 80.585485 
L 352.535863 80.677672 
L 352.55373 81.057278 
L 352.643243 80.482007 
L 352.646817 80.482007 
L 352.678798 80.462746 
L 352.790467 79.827474 
L 352.821734 79.811266 
L 352.839601 79.670003 
L 352.839779 81.0663 
L 352.931615 80.660246 
L 352.946802 80.660246 
L 353.058649 79.825956 
L 353.07187 79.825956 
L 353.107604 79.49536 
L 353.161384 88.510944 
L 353.174962 88.510944 
L 353.179072 88.510944 
L 353.268406 89.639754 
L 353.290383 89.24872 
L 353.30414 89.24872 
L 353.411342 88.154422 
L 353.416166 88.230807 
L 353.429208 88.230807 
L 353.542485 94.09605 
L 353.572144 93.993345 
L 353.683633 93.525487 
L 353.715079 93.434221 
L 353.76868 93.23734 
L 353.786725 93.462788 
L 353.82228 93.448292 
L 353.858014 94.207832 
L 353.933412 93.750502 
L 353.947349 93.750502 
L 354.059195 92.978828 
L 354.126018 92.87147 
L 354.23983 92.413482 
L 354.34042 92.510571 
L 354.358287 99.157682 
L 354.451553 98.625995 
L 354.465489 98.625995 
L 354.5768 98.291886 
L 354.590557 98.291886 
L 354.608424 98.10351 
L 354.608603 107.095038 
L 354.693649 106.636478 
L 354.715625 106.619143 
L 354.787093 106.19342 
L 354.787272 107.61776 
L 354.825864 107.372507 
L 354.858561 107.355619 
L 354.912161 106.903883 
L 354.930207 108.259806 
L 354.969157 107.888165 
L 354.983629 107.888165 
L 355.001496 116.618593 
L 355.094761 115.906779 
L 355.108697 115.906779 
L 355.144431 115.756732 
L 355.162477 118.076216 
L 355.216792 118.051743 
L 355.233766 118.051743 
L 355.305233 117.544695 
L 355.323279 120.675294 
L 355.341682 120.525192 
L 355.358834 120.525192 
L 355.470323 120.198853 
L 355.483902 120.198853 
L 355.501769 121.050732 
L 355.595034 120.802037 
L 355.608971 120.802037 
L 355.680438 120.233469 
L 355.680617 121.366487 
L 355.719745 121.102009 
L 355.751906 121.084552 
L 355.863574 120.570315 
L 355.894841 120.462749 
L 356.008117 120.06969 
L 356.037776 120.069385 
L 356.055643 119.896422 
L 356.055822 124.300518 
L 356.145156 123.671745 
L 356.162845 123.671745 
L 356.252179 122.988261 
L 356.252358 124.045542 
L 356.273441 123.917829 
L 356.30578 123.820183 
L 356.377247 123.567533 
L 356.377426 127.016912 
L 356.407085 126.839613 
L 356.412981 126.839613 
L 356.430848 127.493054 
L 356.524113 126.988844 
L 356.573783 126.988466 
L 356.685809 126.272835 
L 356.698852 126.272835 
L 356.770319 125.952188 
L 356.788365 131.764271 
L 356.80248 131.764271 
L 356.806053 131.764271 
L 356.913255 131.106364 
L 356.913433 132.466764 
L 356.915935 132.466764 
L 356.966855 132.41168 
L 357.079595 131.771124 
L 357.091924 131.771124 
L 357.109791 131.575399 
L 357.199304 133.289158 
L 357.201626 133.289158 
L 357.252726 133.195128 
L 357.368861 132.686338 
L 357.377794 132.686338 
L 357.413528 132.465371 
L 357.413707 136.612143 
L 357.485174 136.452223 
L 359.59329 136.341929 
L 359.705316 136.327263 
L 361.755185 136.216334 
L 361.899193 136.21055 
L 363.63121 136.10001 
L 363.745201 136.091355 
L 365.239232 135.982057 
L 365.351793 135.968095 
L 366.132577 135.863077 
L 366.244066 135.841775 
L 368.562476 135.730848 
L 368.679861 135.720784 
L 372.511061 135.609838 
L 372.623087 135.59557 
L 373.90468 135.484698 
L 374.025103 135.480434 
L 378.103402 135.369665 
L 378.217929 135.364984 
L 380.926373 135.256961 
L 381.039649 134.885402 
L 381.087175 134.775272 
L 381.229574 134.390956 
L 381.23011 134.390956 
L 381.341421 134.194336 
L 381.480247 134.132854 
L 381.591558 133.846974 
L 381.837585 133.769476 
L 381.948896 133.697894 
L 382.016254 133.684545 
L 382.127922 133.189497 
L 382.266391 133.117953 
L 382.377701 132.95342 
L 382.409326 132.863078 
L 382.522423 132.274553 
L 382.587995 132.235449 
L 382.699484 131.934721 
L 382.784531 131.834177 
L 382.896378 131.253847 
L 382.998934 131.167727 
L 383.110423 130.813596 
L 383.124002 130.813596 
L 383.235491 130.439434 
L 383.266937 130.337989 
L 383.378963 130.020134 
L 383.427739 129.918949 
L 383.539407 129.671656 
L 383.624275 129.608196 
L 383.735765 129.263359 
L 384.660556 129.172392 
L 384.772224 128.603118 
L 384.785624 128.603118 
L 384.897471 127.726249 
L 384.910692 127.726249 
L 385.022718 126.865393 
L 385.071494 126.863739 
L 385.182984 126.390098 
L 386.858185 126.279212 
L 386.992365 126.272638 
L 388.251803 126.162185 
L 388.364543 126.144146 
L 389.591821 126.045583 
L 389.705276 125.711887 
L 389.788357 125.600988 
L 389.901633 125.532555 
L 389.949159 125.459265 
L 390.061184 124.694245 
L 390.074227 124.694245 
L 390.186253 124.019743 
L 390.217163 123.948165 
L 390.329009 123.079252 
L 390.360098 123.02954 
L 390.472123 122.191068 
L 390.503033 122.13286 
L 390.615058 121.618414 
L 390.645968 121.605244 
L 390.757994 120.812647 
L 390.80677 120.75787 
L 390.918796 119.927853 
L 390.931839 119.927853 
L 391.044043 119.005212 
L 391.056907 119.005212 
L 391.168396 118.484917 
L 391.235576 118.426447 
L 391.347423 117.660917 
L 391.378511 117.598421 
L 391.490358 116.867469 
L 391.50358 116.867469 
L 391.615426 115.970859 
L 391.646515 115.935657 
L 391.759076 115.204443 
L 391.771583 115.204443 
L 391.88343 114.516597 
L 391.914518 114.459693 
L 392.026186 113.856928 
L 392.057454 113.854523 
L 392.169479 112.872957 
L 392.200389 112.780741 
L 392.3117 112.638645 
L 392.379058 112.5581 
L 392.492691 111.675884 
L 392.575594 111.587778 
L 392.687619 111.208164 
L 392.736396 111.143377 
L 392.849136 110.300907 
L 392.861464 110.300907 
L 392.973132 109.709853 
L 393.004399 109.629767 
L 393.116782 108.984156 
L 393.129468 108.984156 
L 393.240957 108.597198 
L 393.343871 108.488975 
L 393.468224 108.178813 
L 393.57614 108.173178 
L 393.68763 107.758252 
L 393.736942 107.673819 
L 393.848075 107.58915 
L 393.915612 107.531869 
L 394.02728 107.211889 
L 394.04068 107.211889 
L 394.152169 106.662334 
L 394.183615 106.566674 
L 394.295998 105.661102 
L 394.308683 105.661102 
L 394.420709 104.81054 
L 394.433752 104.81054 
L 394.54542 104.147874 
L 394.55882 104.147874 
L 394.670846 103.028401 
L 394.719622 102.960174 
L 394.83272 102.044069 
L 394.898291 102.031024 
L 394.969759 101.437314 
L 395.009959 101.459488 
L 395.094827 101.410017 
L 395.206138 101.190045 
L 395.273496 101.091722 
L 395.384807 100.999146 
L 395.487899 100.981688 
L 395.599389 100.657306 
L 395.738036 100.564029 
L 395.849525 100.135715 
L 395.880971 100.038866 
L 395.99514 99.148681 
L 396.006039 99.148681 
L 396.117886 98.250297 
L 396.131108 98.250297 
L 396.238309 97.696239 
L 396.242776 97.789127 
L 396.256176 97.789127 
L 396.274043 98.284729 
L 396.363556 97.304908 
L 396.366951 97.304908 
L 396.381244 97.304908 
L 396.493091 96.616149 
L 396.57778 96.509677 
L 396.667115 96.41476 
L 396.667293 96.734241 
L 396.687662 96.58429 
L 396.756449 96.52379 
L 396.774316 96.787327 
L 396.863829 96.488575 
L 396.867403 96.488575 
L 396.935118 96.386648 
L 397.047322 95.912423 
L 397.060187 95.912423 
L 397.09592 95.583771 
L 397.096099 96.913678 
L 397.170425 96.532354 
L 397.203122 96.449734 
L 397.314433 96.377364 
L 397.346057 96.315311 
L 397.399658 97.537633 
L 397.457189 97.464017 
L 397.471125 97.464017 
L 397.582972 96.678756 
L 397.596194 96.678756 
L 397.614061 96.485498 
L 397.614239 97.228346 
L 397.707147 96.78437 
L 397.721262 96.78437 
L 397.833109 95.964923 
L 397.84633 95.964923 
L 397.95782 95.475479 
L 397.989266 95.47469 
L 398.024999 95.142732 
L 398.025178 96.086014 
L 398.10004 95.646886 
L 398.203668 95.585879 
L 398.31087 94.846093 
L 398.31623 94.916017 
L 398.400204 94.894793 
L 398.512944 93.775613 
L 398.668208 93.672346 
L 398.686075 93.636037 
L 398.721987 96.021994 
L 398.768799 95.782354 
L 398.775409 95.782354 
L 398.82901 95.196778 
L 398.829189 96.865948 
L 398.885827 96.397456 
L 398.900478 96.397456 
L 399.012324 95.707201 
L 399.043413 95.621257 
L 399.15526 95.298784 
L 399.204215 95.19224 
L 399.293549 94.404899 
L 399.293728 96.19486 
L 399.314454 96.005756 
L 399.34715 95.958364 
L 399.458997 95.359912 
L 399.507952 95.253935 
L 399.619978 94.594383 
L 399.633021 94.594383 
L 399.745046 93.500375 
L 399.775956 93.39647 
L 399.829557 93.11315 
L 399.829735 93.565198 
L 399.887267 93.242651 
L 400.026092 93.139373 
L 400.140262 92.816323 
L 402.473858 92.706005 
L 402.586062 92.696481 
L 406.565379 92.585591 
L 406.692413 92.582148 
L 409.031012 92.472202 
L 409.144109 92.463492 
L 411.871849 92.354514 
L 411.983339 92.350763 
L 415.21296 92.240685 
L 415.326773 92.230427 
L 416.71378 92.119742 
L 416.830987 92.111931 
L 418.982877 92.00432 
L 419.094902 91.983585 
L 420.358629 91.875584 
L 420.470297 91.862592 
L 421.627179 91.755897 
L 421.738668 91.728593 
L 422.895729 91.617547 
L 423.01097 91.611368 
L 424.825354 91.503146 
L 424.937023 91.489331 
L 427.201653 91.378379 
L 427.317966 91.376255 
L 429.81022 91.265597 
L 429.924569 91.256895 
L 431.114504 91.146662 
L 431.226887 91.133618 
L 431.900648 91.023253 
L 432.013388 91.008024 
L 432.133097 90.997904 
L 432.133097 90.997904 
" clip-path="url(#pddd7d07b17)" style="fill: none; stroke: #1f77b4; stroke-width: 1.5; stroke-linecap: square"/>
   </g>
   <g id="line2d_16">
    <path d="M 74.795028 291.167075 
L 74.973519 291.167075 
L 75.084651 290.969682 
L 75.455925 290.969682 
L 75.567057 290.77229 
L 76.313537 290.77229 
L 76.331403 290.574898 
L 76.42449 290.77229 
L 76.760209 290.77229 
L 76.87152 290.377506 
L 79.207975 290.377506 
L 79.319286 289.982722 
L 79.333043 289.982722 
L 79.444175 290.180114 
L 79.672514 290.180114 
L 79.783647 289.982722 
L 82.298949 289.982722 
L 82.410081 289.78533 
L 82.63842 289.78533 
L 82.749552 289.982722 
L 82.781356 289.982722 
L 82.892488 289.78533 
L 82.977892 289.78533 
L 83.089024 289.587937 
L 83.192294 289.587937 
L 83.303426 289.78533 
L 83.728301 289.78533 
L 83.839434 289.587937 
L 86.747808 289.587937 
L 86.85894 289.390545 
L 92.608152 289.390545 
L 92.719285 289.193153 
L 92.894023 289.193153 
L 93.005155 289.390545 
L 93.179893 289.390545 
L 93.291025 289.193153 
L 93.376429 289.193153 
L 93.487561 289.390545 
L 95.073785 289.390545 
L 95.091652 289.193153 
L 95.184739 289.390545 
L 95.44899 289.390545 
L 95.538325 289.193153 
L 95.559944 289.390545 
L 95.609792 289.390545 
L 95.720924 289.193153 
L 97.718087 289.193153 
L 97.789554 288.995761 
L 97.82904 289.193153 
L 97.93249 289.193153 
L 98.043622 288.995761 
L 98.129026 288.995761 
L 98.182626 288.798369 
L 98.239979 288.995761 
L 98.504231 288.995761 
L 98.615541 288.600977 
L 98.665033 288.600977 
L 98.776344 288.995761 
L 98.879436 288.995761 
L 98.915169 288.798369 
L 98.990389 288.995761 
L 99.129572 288.995761 
L 99.240704 289.193153 
L 99.361842 289.193153 
L 99.472974 288.995761 
L 99.48691 288.995761 
L 99.598042 288.798369 
L 99.629845 288.798369 
L 99.737047 288.995761 
L 99.740799 288.798369 
L 99.844248 288.798369 
L 99.95538 288.600977 
L 100.00505 288.600977 
L 100.116183 288.798369 
L 100.362389 288.798369 
L 100.473521 288.600977 
L 101.863208 288.600977 
L 101.934676 288.403585 
L 101.974162 288.600977 
L 102.166946 288.600977 
L 102.220546 288.403585 
L 102.277899 288.600977 
L 103.381895 288.600977 
L 103.47123 288.403585 
L 103.492849 288.600977 
L 103.828568 288.600977 
L 103.917902 288.403585 
L 103.939521 288.600977 
L 103.953636 288.600977 
L 104.064768 288.403585 
L 105.615258 288.403585 
L 105.72639 288.600977 
L 105.811794 288.600977 
L 105.922926 288.403585 
L 107.884355 288.403585 
L 107.995487 288.600977 
L 108.25956 288.600977 
L 108.313161 288.403585 
L 108.370513 288.600977 
L 108.384628 288.600977 
L 108.49576 288.403585 
L 109.796114 288.403585 
L 109.907246 288.600977 
L 109.974783 288.600977 
L 110.064117 288.403585 
L 110.085736 288.600977 
L 110.314254 288.600977 
L 110.425386 288.403585 
L 110.439322 288.403585 
L 110.51079 288.600977 
L 110.550276 288.403585 
L 112.511883 288.403585 
L 112.623015 288.206193 
L 112.940689 288.206193 
L 113.012156 288.403585 
L 113.051642 288.206193 
L 113.298027 288.206193 
L 113.409159 288.403585 
L 113.655365 288.403585 
L 113.762566 288.206193 
L 113.766318 288.403585 
L 113.834034 288.403585 
L 113.945344 288.0088 
L 114.048437 288.0088 
L 114.159569 288.206193 
L 117.353814 288.206193 
L 117.464946 288.0088 
L 120.927194 288.0088 
L 121.016529 288.206193 
L 121.038148 288.0088 
L 121.213065 288.0088 
L 121.320266 287.811408 
L 121.324018 288.0088 
L 122.213611 288.0088 
L 122.324744 287.811408 
L 124.286172 287.811408 
L 124.397304 288.0088 
L 129.842779 288.0088 
L 129.953911 288.206193 
L 130.057182 288.206193 
L 130.168314 288.0088 
L 131.075595 288.0088 
L 131.186728 288.206193 
L 132.254811 288.206193 
L 132.365943 288.0088 
L 132.43348 288.0088 
L 132.544612 288.206193 
L 133.755631 288.206193 
L 133.866763 288.0088 
L 135.238584 288.0088 
L 135.256451 287.811408 
L 135.349537 288.0088 
L 135.43512 288.0088 
L 135.546252 287.811408 
L 135.578055 287.811408 
L 135.689187 288.0088 
L 136.346332 288.0088 
L 136.457464 288.206193 
L 138.686896 288.206193 
L 138.798028 288.0088 
L 141.313331 288.0088 
L 141.331198 287.811408 
L 141.424285 288.0088 
L 141.831471 288.0088 
L 141.942603 287.811408 
L 143.332291 287.811408 
L 143.368025 287.614016 
L 143.443245 287.811408 
L 144.154169 287.811408 
L 144.189903 287.614016 
L 144.265122 287.811408 
L 144.654442 287.811408 
L 144.765574 287.614016 
L 144.940313 287.614016 
L 145.051445 287.811408 
L 145.297651 287.811408 
L 145.351251 287.614016 
L 145.408604 287.811408 
L 147.959819 287.811408 
L 148.070951 287.614016 
L 148.138488 287.614016 
L 148.24962 287.811408 
L 148.728096 287.811408 
L 148.745963 287.614016 
L 148.83905 287.811408 
L 149.210502 287.811408 
L 149.321635 287.614016 
L 149.442772 287.614016 
L 149.553904 287.416624 
L 156.982605 287.416624 
L 157.093738 287.219232 
L 157.214875 287.219232 
L 157.326007 287.416624 
L 157.697282 287.416624 
L 157.715148 287.219232 
L 157.808235 287.416624 
L 160.806123 287.416624 
L 160.895457 287.219232 
L 160.917076 287.416624 
L 161.699468 287.416624 
L 161.735202 287.219232 
L 161.810421 287.416624 
L 162.574946 287.416624 
L 162.628547 287.02184 
L 162.686078 287.219232 
L 163.486158 287.219232 
L 163.59729 287.416624 
L 164.308036 287.416624 
L 164.419168 287.219232 
L 165.505118 287.219232 
L 165.540852 287.02184 
L 165.616072 287.219232 
L 169.65024 287.219232 
L 169.761372 287.02184 
L 170.418517 287.02184 
L 170.529828 287.416624 
L 171.454797 287.416624 
L 171.472664 287.219232 
L 171.565751 287.416624 
L 171.651333 287.416624 
L 171.762465 287.219232 
L 172.026538 287.219232 
L 172.13767 287.416624 
L 172.508944 287.416624 
L 172.620077 287.219232 
L 172.687614 287.219232 
L 172.798746 287.02184 
L 172.848416 287.02184 
L 172.959548 287.219232 
L 173.45589 287.219232 
L 173.563092 287.02184 
L 173.566844 287.219232 
L 174.331369 287.219232 
L 174.442501 287.416624 
L 174.938843 287.416624 
L 175.049975 287.219232 
L 175.063912 287.219232 
L 175.135379 287.416624 
L 175.174865 287.219232 
L 175.206847 287.219232 
L 175.317979 287.416624 
L 175.492717 287.416624 
L 175.599919 287.219232 
L 175.603671 287.416624 
L 176.22526 287.416624 
L 176.336393 287.219232 
L 178.583692 287.219232 
L 178.694824 287.02184 
L 178.780228 287.02184 
L 178.89136 287.219232 
L 181.102925 287.219232 
L 181.214057 287.02184 
L 181.263727 287.02184 
L 181.335195 287.219232 
L 181.374681 287.02184 
L 181.406662 287.02184 
L 181.517795 287.219232 
L 181.764 287.219232 
L 181.875133 287.02184 
L 181.942669 287.02184 
L 182.053802 287.219232 
L 182.103472 287.219232 
L 182.214604 287.02184 
L 182.300008 287.02184 
L 182.41114 287.219232 
L 182.496543 287.219232 
L 182.607676 287.02184 
L 182.782414 287.02184 
L 182.836015 287.219232 
L 182.893367 287.02184 
L 182.996817 287.02184 
L 183.107949 286.824448 
L 183.121885 286.824448 
L 183.233196 287.219232 
L 184.926442 287.219232 
L 185.037574 287.02184 
L 185.105111 287.02184 
L 185.212313 287.219232 
L 185.216065 287.02184 
L 185.23018 287.02184 
L 185.341312 287.219232 
L 185.426716 287.219232 
L 185.537848 287.02184 
L 185.766187 287.02184 
L 185.873388 287.219232 
L 185.87714 287.02184 
L 185.926989 287.02184 
L 186.038121 287.219232 
L 186.248593 287.219232 
L 186.359725 287.02184 
L 186.552331 287.02184 
L 186.663463 287.219232 
L 186.695266 287.219232 
L 186.7846 287.02184 
L 186.806219 287.219232 
L 186.820334 287.219232 
L 186.931466 287.02184 
L 186.981136 287.02184 
L 186.999003 287.219232 
L 187.09209 287.02184 
L 187.124071 287.02184 
L 187.235204 287.219232 
L 187.24914 287.219232 
L 187.267007 287.02184 
L 187.360093 287.219232 
L 187.731546 287.219232 
L 187.749413 287.02184 
L 187.8425 287.219232 
L 188.785693 287.219232 
L 188.896826 287.416624 
L 189.232366 287.416624 
L 189.343498 287.219232 
L 189.536103 287.219232 
L 189.55397 287.02184 
L 189.647057 287.219232 
L 189.857708 287.219232 
L 189.96884 287.416624 
L 190.143578 287.416624 
L 190.25471 287.219232 
L 190.340114 287.219232 
L 190.357981 287.02184 
L 190.451068 287.219232 
L 190.965456 287.219232 
L 191.05479 287.416624 
L 191.076409 287.219232 
L 191.161992 287.219232 
L 191.273124 287.02184 
L 191.537197 287.02184 
L 191.590797 286.824448 
L 191.64815 287.02184 
L 191.733733 287.02184 
L 191.844865 287.219232 
L 194.556703 287.219232 
L 194.667835 287.02184 
L 194.681772 287.02184 
L 194.792904 287.219232 
L 195.199912 287.219232 
L 195.253513 287.02184 
L 195.310865 287.219232 
L 195.55725 287.219232 
L 195.668561 286.824448 
L 196.003922 286.824448 
L 196.115055 287.02184 
L 196.557796 287.02184 
L 196.59353 287.219232 
L 196.66875 287.02184 
L 199.452235 287.02184 
L 199.523702 286.824448 
L 199.563188 287.02184 
L 200.595717 287.02184 
L 200.667184 286.824448 
L 200.70667 287.02184 
L 201.399727 287.02184 
L 201.471195 286.824448 
L 201.510681 287.02184 
L 201.864267 287.02184 
L 201.900001 286.824448 
L 201.97522 287.02184 
L 202.864813 287.02184 
L 202.918414 286.824448 
L 202.975767 287.02184 
L 204.061896 287.02184 
L 204.115497 286.824448 
L 204.172849 287.02184 
L 207.545942 287.02184 
L 207.657074 286.824448 
L 208.564356 286.824448 
L 208.582222 286.627055 
L 208.675309 286.824448 
L 209.332632 286.824448 
L 209.443765 286.627055 
L 209.475568 286.627055 
L 209.5867 286.824448 
L 212.030535 286.824448 
L 212.141667 286.627055 
L 212.727344 286.627055 
L 212.838476 286.429663 
L 212.888146 286.429663 
L 212.999278 286.627055 
L 213.174017 286.627055 
L 213.285149 286.429663 
L 213.334819 286.429663 
L 213.445951 286.627055 
L 213.531355 286.627055 
L 213.642487 286.429663 
L 213.90656 286.429663 
L 214.013761 286.627055 
L 214.017513 286.429663 
L 214.031628 286.429663 
L 214.049495 286.627055 
L 214.142581 286.429663 
L 214.567635 286.429663 
L 214.678767 286.627055 
L 214.960707 286.627055 
L 215.071839 286.429663 
L 215.550315 286.429663 
L 215.661447 286.627055 
L 216.532994 286.627055 
L 216.644127 286.429663 
L 216.711664 286.429663 
L 216.822796 286.627055 
L 217.158336 286.627055 
L 217.247671 286.429663 
L 217.26929 286.627055 
L 217.337005 286.627055 
L 217.448137 286.429663 
L 217.676476 286.429663 
L 217.787608 286.627055 
L 217.890879 286.627055 
L 217.926613 286.824448 
L 218.001833 286.627055 
L 218.033814 286.627055 
L 218.144947 286.429663 
L 218.766357 286.429663 
L 218.87749 286.232271 
L 219.034361 286.232271 
L 219.145493 286.034879 
L 219.230897 286.034879 
L 219.342029 286.232271 
L 219.909839 286.232271 
L 220.020971 286.034879 
L 220.445846 286.034879 
L 220.556978 286.232271 
L 221.071188 286.232271 
L 221.160522 286.034879 
L 221.182141 286.232271 
L 221.357058 286.232271 
L 221.374925 286.034879 
L 221.468012 286.232271 
L 222.786411 286.232271 
L 222.897543 286.034879 
L 223.286684 286.034879 
L 223.397816 286.232271 
L 223.48322 286.232271 
L 223.594352 286.034879 
L 223.751223 286.034879 
L 223.862356 286.232271 
L 223.929892 286.232271 
L 224.041203 285.837487 
L 224.680302 285.837487 
L 224.791435 286.034879 
L 230.487046 286.034879 
L 230.598178 285.837487 
L 230.701449 285.837487 
L 230.812581 286.034879 
L 231.308924 286.034879 
L 231.362524 285.837487 
L 231.419877 286.034879 
L 231.433992 286.034879 
L 231.469726 285.837487 
L 231.544945 286.034879 
L 231.684129 286.034879 
L 231.795261 286.232271 
L 235.739916 286.232271 
L 235.851048 286.034879 
L 235.900718 286.034879 
L 236.01185 286.232271 
L 236.079387 286.232271 
L 236.168721 286.034879 
L 236.19034 286.232271 
L 241.546659 286.232271 
L 241.657791 286.034879 
L 241.689594 286.034879 
L 241.800905 286.429663 
L 241.83253 286.429663 
L 241.921864 286.232271 
L 241.943483 286.429663 
L 241.975465 286.429663 
L 242.086597 286.232271 
L 242.1184 286.232271 
L 242.229532 286.429663 
L 242.314936 286.429663 
L 242.368537 286.232271 
L 242.42589 286.429663 
L 242.708008 286.429663 
L 242.761609 286.232271 
L 242.818961 286.429663 
L 242.886677 286.429663 
L 242.997809 286.232271 
L 243.654954 286.232271 
L 243.766086 286.034879 
L 243.887224 286.034879 
L 243.922957 286.232271 
L 243.998177 286.034879 
L 244.530432 286.034879 
L 244.641564 286.232271 
L 246.209921 286.232271 
L 246.321053 286.034879 
L 247.621406 286.034879 
L 247.732539 285.837487 
L 248.961424 285.837487 
L 249.072556 286.034879 
L 249.283028 286.034879 
L 249.336629 285.837487 
L 249.393982 286.034879 
L 250.229974 286.034879 
L 250.341106 285.837487 
L 257.734074 285.837487 
L 257.845206 285.640095 
L 257.859142 285.640095 
L 257.970274 285.837487 
L 260.825048 285.837487 
L 260.93618 286.034879 
L 261.093052 286.034879 
L 261.204184 285.837487 
L 265.273907 285.837487 
L 265.385039 285.640095 
L 265.756313 285.640095 
L 265.77418 285.837487 
L 265.867267 285.640095 
L 266.167252 285.640095 
L 266.278384 285.837487 
L 270.115838 285.837487 
L 270.22697 285.640095 
L 270.312374 285.640095 
L 270.423506 285.442703 
L 270.651845 285.442703 
L 270.762977 285.640095 
L 270.776913 285.640095 
L 270.79478 285.837487 
L 270.887867 285.640095 
L 271.670258 285.640095 
L 271.688125 285.837487 
L 271.781212 285.640095 
L 271.795327 285.640095 
L 271.906459 285.837487 
L 272.920942 285.837487 
L 273.032074 285.640095 
L 273.439082 285.640095 
L 273.550214 285.837487 
L 273.867888 285.837487 
L 273.97902 285.640095 
L 274.421762 285.640095 
L 274.532894 285.837487 
L 274.904168 285.837487 
L 275.0153 285.640095 
L 276.011916 285.640095 
L 276.123048 285.837487 
L 276.226319 285.837487 
L 276.337451 285.640095 
L 277.405534 285.640095 
L 277.516667 285.442703 
L 277.566337 285.442703 
L 277.677469 285.640095 
L 277.905808 285.640095 
L 278.01694 285.837487 
L 278.638351 285.837487 
L 278.656218 285.640095 
L 278.749304 285.837487 
L 280.282106 285.837487 
L 280.393238 285.640095 
L 280.978915 285.640095 
L 281.090047 285.442703 
L 281.300519 285.442703 
L 281.411651 285.640095 
L 282.444001 285.640095 
L 282.555133 285.442703 
L 283.301613 285.442703 
L 283.412745 285.640095 
L 284.141357 285.640095 
L 284.252489 285.837487 
L 284.480828 285.837487 
L 284.570163 285.640095 
L 284.591782 285.837487 
L 285.838713 285.837487 
L 285.91018 285.640095 
L 285.949666 285.837487 
L 286.392587 285.837487 
L 286.503719 285.640095 
L 286.839259 285.640095 
L 286.946461 285.442703 
L 286.950213 285.640095 
L 287.696871 285.640095 
L 287.808003 285.837487 
L 287.839806 285.837487 
L 287.893407 285.640095 
L 287.950759 285.837487 
L 288.215011 285.837487 
L 288.232878 285.640095 
L 288.325964 285.837487 
L 288.876086 285.837487 
L 288.983288 285.640095 
L 288.98704 285.837487 
L 289.233424 285.837487 
L 289.251291 285.640095 
L 289.344378 285.837487 
L 291.216651 285.837487 
L 291.252385 285.640095 
L 291.327604 285.837487 
L 295.397506 285.837487 
L 295.508638 285.640095 
L 295.647643 285.640095 
L 295.701243 285.837487 
L 295.737156 285.442703 
L 295.758418 285.442703 
L 295.915646 285.442703 
L 296.026778 285.640095 
L 296.219384 285.640095 
L 296.330516 285.442703 
L 296.362319 285.442703 
L 296.46952 285.640095 
L 296.473272 285.442703 
L 296.487387 285.442703 
L 296.598519 285.640095 
L 297.291398 285.640095 
L 297.309265 285.442703 
L 297.402351 285.640095 
L 298.256211 285.640095 
L 298.367343 285.442703 
L 298.399146 285.442703 
L 298.510278 285.245311 
L 298.685016 285.245311 
L 298.738617 285.047918 
L 298.79597 285.245311 
L 299.792764 285.245311 
L 299.903897 285.047918 
L 300.507441 285.047918 
L 300.618573 284.850526 
L 300.703976 284.850526 
L 300.815287 285.245311 
L 301.061315 285.245311 
L 301.172447 285.442703 
L 301.990393 285.442703 
L 302.101526 285.245311 
L 302.133329 285.245311 
L 302.204796 285.442703 
L 302.244282 285.245311 
L 302.258397 285.245311 
L 302.365598 285.442703 
L 302.369351 285.245311 
L 302.597868 285.245311 
L 302.709 285.442703 
L 303.133875 285.442703 
L 303.245007 285.245311 
L 303.384012 285.245311 
L 303.495144 285.047918 
L 305.813911 285.047918 
L 305.925043 285.245311 
L 307.582734 285.245311 
L 307.693866 285.047918 
L 308.029407 285.047918 
L 308.100874 285.245311 
L 308.14036 285.047918 
L 308.619015 285.047918 
L 308.730147 285.245311 
L 310.191302 285.245311 
L 310.209169 285.047918 
L 310.302256 285.245311 
L 310.387838 285.245311 
L 310.49897 285.047918 
L 311.709989 285.047918 
L 311.821121 285.245311 
L 316.03378 285.245311 
L 316.105247 285.047918 
L 316.144733 285.245311 
L 318.695948 285.245311 
L 318.80708 285.047918 
L 318.946085 285.047918 
L 319.057217 285.245311 
L 319.678628 285.245311 
L 319.732229 285.047918 
L 319.789581 285.245311 
L 320.393304 285.245311 
L 320.429038 285.047918 
L 320.504257 285.245311 
L 320.82211 285.245311 
L 320.933242 285.047918 
L 321.286649 285.047918 
L 321.397781 285.245311 
L 321.62612 285.245311 
L 321.643987 285.047918 
L 321.737074 285.245311 
L 322.072793 285.245311 
L 322.126394 285.047918 
L 322.183746 285.245311 
L 323.198408 285.245311 
L 323.30954 285.047918 
L 323.573613 285.047918 
L 323.684745 285.245311 
L 324.002418 285.245311 
L 324.113551 285.047918 
L 324.145354 285.047918 
L 324.256486 285.245311 
L 324.788562 285.245311 
L 324.86003 285.047918 
L 324.899516 285.245311 
L 325.592573 285.245311 
L 325.646174 285.047918 
L 325.703526 285.245311 
L 326.074979 285.245311 
L 326.186111 285.047918 
L 327.414997 285.047918 
L 327.450731 284.850526 
L 327.525951 285.047918 
L 327.86167 285.047918 
L 327.91527 284.850526 
L 327.972623 285.047918 
L 329.576892 285.047918 
L 329.594759 284.850526 
L 329.687846 285.047918 
L 330.791842 285.047918 
L 330.902974 285.245311 
L 333.757748 285.245311 
L 333.86888 285.047918 
L 333.990017 285.047918 
L 334.10115 285.245311 
L 334.972697 285.245311 
L 334.990564 285.047918 
L 335.083651 285.245311 
L 335.812442 285.245311 
L 335.901776 285.047918 
L 335.923395 285.245311 
L 336.294848 285.245311 
L 336.330582 285.047918 
L 336.405802 285.245311 
L 339.510891 285.245311 
L 339.622023 285.047918 
L 339.74316 285.047918 
L 339.854293 285.245311 
L 340.833042 285.245311 
L 340.850908 285.047918 
L 340.943995 285.245311 
L 341.047444 285.245311 
L 341.101045 285.047918 
L 341.158398 285.245311 
L 346.461116 285.245311 
L 346.572248 285.047918 
L 347.318727 285.047918 
L 347.42986 284.850526 
L 347.640332 284.850526 
L 347.693932 285.047918 
L 347.751285 284.850526 
L 347.7654 284.850526 
L 347.876532 285.047918 
L 348.480076 285.047918 
L 348.591208 284.850526 
L 348.74808 284.850526 
L 348.859212 285.047918 
L 351.463849 285.047918 
L 351.499583 284.850526 
L 351.574802 285.047918 
L 351.588917 285.047918 
L 351.700049 284.850526 
L 352.178525 284.850526 
L 352.289657 285.047918 
L 352.55373 285.047918 
L 352.664862 284.850526 
L 352.911068 284.850526 
L 352.946802 285.047918 
L 353.022022 284.850526 
L 353.07187 284.850526 
L 353.183002 285.047918 
L 353.268406 285.047918 
L 353.286273 284.850526 
L 353.37936 285.047918 
L 355.591104 285.047918 
L 355.702236 284.850526 
L 356.430848 284.850526 
L 356.54198 285.047918 
L 356.609517 285.047918 
L 356.663118 284.850526 
L 356.720471 285.047918 
L 357.377794 285.047918 
L 357.488926 284.850526 
L 358.038869 284.850526 
L 358.128204 285.047918 
L 358.149823 284.850526 
L 358.163938 284.850526 
L 358.27507 285.047918 
L 360.701038 285.047918 
L 360.80824 284.850526 
L 360.811992 285.047918 
L 361.09411 285.047918 
L 361.205242 285.245311 
L 361.933854 285.245311 
L 362.044987 285.047918 
L 362.719998 285.047918 
L 362.83113 285.245311 
L 364.703224 285.245311 
L 364.792559 285.047918 
L 364.814178 285.245311 
L 365.167764 285.245311 
L 365.278896 285.047918 
L 366.186177 285.047918 
L 366.29731 285.245311 
L 367.204591 285.245311 
L 367.315723 285.047918 
L 367.990735 285.047918 
L 368.101867 284.850526 
L 368.169404 284.850526 
L 368.280536 285.047918 
L 368.919814 285.047918 
L 369.030946 284.850526 
L 369.295019 284.850526 
L 369.406151 285.047918 
L 372.100122 285.047918 
L 372.211255 284.850526 
L 372.439594 284.850526 
L 372.550726 285.047918 
L 373.565209 285.047918 
L 373.583075 284.850526 
L 373.676162 285.047918 
L 373.797478 285.047918 
L 373.833212 284.850526 
L 373.908432 285.047918 
L 374.547888 285.047918 
L 374.565755 284.850526 
L 374.658842 285.047918 
L 375.619902 285.047918 
L 375.673503 284.850526 
L 375.730856 285.047918 
L 375.887906 285.047918 
L 375.999038 285.245311 
L 377.406593 285.245311 
L 377.517725 285.047918 
L 377.531661 285.047918 
L 377.642793 284.850526 
L 378.17487 284.850526 
L 378.286002 285.047918 
L 378.889546 285.047918 
L 379.000678 285.245311 
L 380.336765 285.245311 
L 380.447897 285.047918 
L 381.944786 285.047918 
L 382.055918 284.850526 
L 383.910146 284.850526 
L 384.021278 285.047918 
L 384.196016 285.047918 
L 384.307148 284.850526 
L 384.767757 284.850526 
L 384.878889 285.047918 
L 385.5003 285.047918 
L 385.611432 285.245311 
L 385.714703 285.245311 
L 385.825835 285.047918 
L 386.089908 285.047918 
L 386.20104 285.245311 
L 386.572314 285.245311 
L 386.683446 285.047918 
L 386.947519 285.047918 
L 387.058651 285.245311 
L 387.376325 285.245311 
L 387.487457 285.047918 
L 388.591274 285.047918 
L 388.609141 285.245311 
L 388.702228 285.047918 
L 389.25235 285.047918 
L 389.363482 285.245311 
L 390.538767 285.245311 
L 390.649899 285.047918 
L 390.681702 285.047918 
L 390.792834 285.245311 
L 392.361191 285.245311 
L 392.472323 285.047918 
L 392.77213 285.047918 
L 392.807864 285.245311 
L 392.883083 285.047918 
L 394.165748 285.047918 
L 394.27295 285.245311 
L 394.276702 285.047918 
L 394.344417 285.047918 
L 394.455549 285.245311 
L 394.469486 285.245311 
L 394.580618 285.047918 
L 396.952985 285.047918 
L 397.064117 285.245311 
L 397.131654 285.245311 
L 397.242786 285.047918 
L 399.633021 285.047918 
L 399.668754 284.850526 
L 399.743974 285.047918 
L 410.960637 285.047918 
L 411.014238 284.850526 
L 411.071591 285.047918 
L 411.282242 285.047918 
L 411.393374 284.850526 
L 411.961184 284.850526 
L 412.072316 285.047918 
L 412.997464 285.047918 
L 413.108597 284.850526 
L 413.390536 284.850526 
L 413.501668 285.047918 
L 416.124172 285.047918 
L 416.235305 284.850526 
L 416.71378 284.850526 
L 416.824912 285.047918 
L 417.446323 285.047918 
L 417.557455 284.850526 
L 417.607125 284.850526 
L 417.718258 285.047918 
L 421.555711 285.047918 
L 421.662913 284.850526 
L 421.666665 285.047918 
L 425.325628 285.047918 
L 425.43676 284.850526 
L 426.040304 284.850526 
L 426.151436 284.653134 
L 426.183239 284.653134 
L 426.218973 284.850526 
L 426.294193 284.653134 
L 427.112318 284.653134 
L 427.22345 284.850526 
L 427.487523 284.850526 
L 427.598655 284.653134 
L 427.630458 284.653134 
L 427.74159 284.850526 
L 428.345134 284.850526 
L 428.398735 284.653134 
L 428.456088 284.850526 
L 428.54167 284.850526 
L 428.652802 284.653134 
L 429.542217 284.653134 
L 429.653349 284.850526 
L 431.328907 284.850526 
L 431.440039 284.653134 
L 431.54331 284.653134 
L 431.654442 284.850526 
L 431.704112 284.850526 
L 431.815244 284.653134 
L 431.829181 284.653134 
L 431.940313 284.850526 
L 432.133097 284.850526 
L 432.133097 284.850526 
" clip-path="url(#pddd7d07b17)" style="fill: none; stroke: #ff7f0e; stroke-width: 1.5; stroke-linecap: square"/>
   </g>
   <g id="patch_3">
    <path d="M 56.928125 304.44375 
L 56.928125 12.35689 
" style="fill: none; stroke: #000000; stroke-width: 0.8; stroke-linejoin: miter; stroke-linecap: square"/>
   </g>
   <g id="patch_4">
    <path d="M 450 304.44375 
L 450 12.35689 
" style="fill: none; stroke: #000000; stroke-width: 0.8; stroke-linejoin: miter; stroke-linecap: square"/>
   </g>
   <g id="patch_5">
    <path d="M 56.928125 304.44375 
L 450 304.44375 
" style="fill: none; stroke: #000000; stroke-width: 0.8; stroke-linejoin: miter; stroke-linecap: square"/>
   </g>
   <g id="patch_6">
    <path d="M 56.928125 12.35689 
L 450 12.35689 
" style="fill: none; stroke: #000000; stroke-width: 0.8; stroke-linejoin: miter; stroke-linecap: square"/>
   </g>
   <g id="legend_1">
    <g id="patch_7">
     <path d="M 393.1 49.71314 
L 443 49.71314 
Q 445 49.71314 445 47.71314 
L 445 19.35689 
Q 445 17.35689 443 17.35689 
L 393.1 17.35689 
Q 391.1 17.35689 391.1 19.35689 
L 391.1 47.71314 
Q 391.1 49.71314 393.1 49.71314 
z
" style="fill: #ffffff; opacity: 0.8; stroke: #cccccc; stroke-linejoin: miter"/>
    </g>
    <g id="line2d_17">
     <path d="M 395.1 25.455327 
L 405.1 25.455327 
L 415.1 25.455327 
" style="fill: none; stroke: #1f77b4; stroke-width: 1.5; stroke-linecap: square"/>
    </g>
    <g id="text_17">
     <!-- $n_{eff}$ -->
     <g transform="translate(423.1 28.955327) scale(0.1 -0.1)">
      <defs>
       <path id="DejaVuSans-Oblique-6e" d="M 3566 2113 
L 3156 0 
L 2578 0 
L 2988 2091 
Q 3016 2238 3031 2350 
Q 3047 2463 3047 2528 
Q 3047 2791 2881 2937 
Q 2716 3084 2419 3084 
Q 1956 3084 1622 2776 
Q 1288 2469 1184 1941 
L 800 0 
L 225 0 
L 903 3500 
L 1478 3500 
L 1363 2950 
Q 1603 3253 1940 3418 
Q 2278 3584 2650 3584 
Q 3113 3584 3367 3334 
Q 3622 3084 3622 2631 
Q 3622 2519 3608 2391 
Q 3594 2263 3566 2113 
z
" transform="scale(0.015625)"/>
       <path id="DejaVuSans-Oblique-65" d="M 3078 2063 
Q 3088 2113 3092 2166 
Q 3097 2219 3097 2272 
Q 3097 2653 2873 2875 
Q 2650 3097 2266 3097 
Q 1838 3097 1509 2826 
Q 1181 2556 1013 2059 
L 3078 2063 
z
M 3578 1613 
L 903 1613 
Q 884 1494 878 1425 
Q 872 1356 872 1306 
Q 872 872 1139 634 
Q 1406 397 1894 397 
Q 2269 397 2603 481 
Q 2938 566 3225 728 
L 3116 159 
Q 2806 34 2476 -28 
Q 2147 -91 1806 -91 
Q 1078 -91 686 257 
Q 294 606 294 1247 
Q 294 1794 489 2264 
Q 684 2734 1063 3103 
Q 1306 3334 1642 3459 
Q 1978 3584 2356 3584 
Q 2950 3584 3301 3228 
Q 3653 2872 3653 2272 
Q 3653 2128 3634 1964 
Q 3616 1800 3578 1613 
z
" transform="scale(0.015625)"/>
       <path id="DejaVuSans-Oblique-66" d="M 3059 4863 
L 2969 4384 
L 2419 4384 
Q 2106 4384 1964 4261 
Q 1822 4138 1753 3809 
L 1691 3500 
L 2638 3500 
L 2553 3053 
L 1606 3053 
L 1013 0 
L 434 0 
L 1031 3053 
L 481 3053 
L 563 3500 
L 1113 3500 
L 1159 3744 
Q 1278 4363 1576 4613 
Q 1875 4863 2516 4863 
L 3059 4863 
z
" transform="scale(0.015625)"/>
      </defs>
      <use xlink:href="#DejaVuSans-Oblique-6e"/>
      <use xlink:href="#DejaVuSans-Oblique-65" transform="translate(63.378906 -16.40625) scale(0.7)"/>
      <use xlink:href="#DejaVuSans-Oblique-66" transform="translate(106.445312 -16.40625) scale(0.7)"/>
      <use xlink:href="#DejaVuSans-Oblique-66" transform="translate(131.088867 -16.40625) scale(0.7)"/>
     </g>
    </g>
    <g id="line2d_18">
     <path d="M 395.1 40.133452 
L 405.1 40.133452 
L 415.1 40.133452 
" style="fill: none; stroke: #ff7f0e; stroke-width: 1.5; stroke-linecap: square"/>
    </g>
    <g id="text_18">
     <!-- $n_{ker}$ -->
     <g transform="translate(423.1 43.633452) scale(0.1 -0.1)">
      <defs>
       <path id="DejaVuSans-Oblique-6b" d="M 1172 4863 
L 1747 4863 
L 1197 2028 
L 3169 3500 
L 3916 3500 
L 1716 1825 
L 3322 0 
L 2625 0 
L 1131 1709 
L 800 0 
L 225 0 
L 1172 4863 
z
" transform="scale(0.015625)"/>
       <path id="DejaVuSans-Oblique-72" d="M 2853 2969 
Q 2766 3016 2653 3041 
Q 2541 3066 2413 3066 
Q 1953 3066 1609 2717 
Q 1266 2369 1153 1784 
L 800 0 
L 225 0 
L 909 3500 
L 1484 3500 
L 1375 2956 
Q 1603 3259 1920 3421 
Q 2238 3584 2597 3584 
Q 2691 3584 2781 3573 
Q 2872 3563 2963 3538 
L 2853 2969 
z
" transform="scale(0.015625)"/>
      </defs>
      <use xlink:href="#DejaVuSans-Oblique-6e"/>
      <use xlink:href="#DejaVuSans-Oblique-6b" transform="translate(63.378906 -16.40625) scale(0.7)"/>
      <use xlink:href="#DejaVuSans-Oblique-65" transform="translate(103.916016 -16.40625) scale(0.7)"/>
      <use xlink:href="#DejaVuSans-Oblique-72" transform="translate(146.982422 -16.40625) scale(0.7)"/>
     </g>
    </g>
   </g>
  </g>
 </g>
 <defs>
  <clipPath id="pddd7d07b17">
   <rect x="56.928125" y="12.35689" width="393.071875" height="292.08686"/>
  </clipPath>
 </defs>
</svg>
